%TF.GenerationSoftware,KiCad,Pcbnew,9.0.2*%
%TF.CreationDate,2025-06-30T17:21:47-07:00*%
%TF.ProjectId,FirstHCProject,46697273-7448-4435-9072-6f6a6563742e,rev?*%
%TF.SameCoordinates,Original*%
%TF.FileFunction,Legend,Top*%
%TF.FilePolarity,Positive*%
%FSLAX46Y46*%
G04 Gerber Fmt 4.6, Leading zero omitted, Abs format (unit mm)*
G04 Created by KiCad (PCBNEW 9.0.2) date 2025-06-30 17:21:47*
%MOMM*%
%LPD*%
G01*
G04 APERTURE LIST*
%ADD10C,0.150000*%
%ADD11C,0.300000*%
%ADD12C,0.120000*%
%ADD13C,0.000000*%
G04 APERTURE END LIST*
D10*
X136791905Y-115494819D02*
X136791905Y-114494819D01*
X136791905Y-114494819D02*
X137030000Y-114494819D01*
X137030000Y-114494819D02*
X137172857Y-114542438D01*
X137172857Y-114542438D02*
X137268095Y-114637676D01*
X137268095Y-114637676D02*
X137315714Y-114732914D01*
X137315714Y-114732914D02*
X137363333Y-114923390D01*
X137363333Y-114923390D02*
X137363333Y-115066247D01*
X137363333Y-115066247D02*
X137315714Y-115256723D01*
X137315714Y-115256723D02*
X137268095Y-115351961D01*
X137268095Y-115351961D02*
X137172857Y-115447200D01*
X137172857Y-115447200D02*
X137030000Y-115494819D01*
X137030000Y-115494819D02*
X136791905Y-115494819D01*
X137744286Y-114590057D02*
X137791905Y-114542438D01*
X137791905Y-114542438D02*
X137887143Y-114494819D01*
X137887143Y-114494819D02*
X138125238Y-114494819D01*
X138125238Y-114494819D02*
X138220476Y-114542438D01*
X138220476Y-114542438D02*
X138268095Y-114590057D01*
X138268095Y-114590057D02*
X138315714Y-114685295D01*
X138315714Y-114685295D02*
X138315714Y-114780533D01*
X138315714Y-114780533D02*
X138268095Y-114923390D01*
X138268095Y-114923390D02*
X137696667Y-115494819D01*
X137696667Y-115494819D02*
X138315714Y-115494819D01*
X139684819Y-82756666D02*
X139208628Y-83089999D01*
X139684819Y-83328094D02*
X138684819Y-83328094D01*
X138684819Y-83328094D02*
X138684819Y-82947142D01*
X138684819Y-82947142D02*
X138732438Y-82851904D01*
X138732438Y-82851904D02*
X138780057Y-82804285D01*
X138780057Y-82804285D02*
X138875295Y-82756666D01*
X138875295Y-82756666D02*
X139018152Y-82756666D01*
X139018152Y-82756666D02*
X139113390Y-82804285D01*
X139113390Y-82804285D02*
X139161009Y-82851904D01*
X139161009Y-82851904D02*
X139208628Y-82947142D01*
X139208628Y-82947142D02*
X139208628Y-83328094D01*
X138684819Y-82423332D02*
X138684819Y-81804285D01*
X138684819Y-81804285D02*
X139065771Y-82137618D01*
X139065771Y-82137618D02*
X139065771Y-81994761D01*
X139065771Y-81994761D02*
X139113390Y-81899523D01*
X139113390Y-81899523D02*
X139161009Y-81851904D01*
X139161009Y-81851904D02*
X139256247Y-81804285D01*
X139256247Y-81804285D02*
X139494342Y-81804285D01*
X139494342Y-81804285D02*
X139589580Y-81851904D01*
X139589580Y-81851904D02*
X139637200Y-81899523D01*
X139637200Y-81899523D02*
X139684819Y-81994761D01*
X139684819Y-81994761D02*
X139684819Y-82280475D01*
X139684819Y-82280475D02*
X139637200Y-82375713D01*
X139637200Y-82375713D02*
X139589580Y-82423332D01*
X149294819Y-100468094D02*
X148294819Y-100468094D01*
X148294819Y-100468094D02*
X148294819Y-100229999D01*
X148294819Y-100229999D02*
X148342438Y-100087142D01*
X148342438Y-100087142D02*
X148437676Y-99991904D01*
X148437676Y-99991904D02*
X148532914Y-99944285D01*
X148532914Y-99944285D02*
X148723390Y-99896666D01*
X148723390Y-99896666D02*
X148866247Y-99896666D01*
X148866247Y-99896666D02*
X149056723Y-99944285D01*
X149056723Y-99944285D02*
X149151961Y-99991904D01*
X149151961Y-99991904D02*
X149247200Y-100087142D01*
X149247200Y-100087142D02*
X149294819Y-100229999D01*
X149294819Y-100229999D02*
X149294819Y-100468094D01*
X148294819Y-98991904D02*
X148294819Y-99468094D01*
X148294819Y-99468094D02*
X148771009Y-99515713D01*
X148771009Y-99515713D02*
X148723390Y-99468094D01*
X148723390Y-99468094D02*
X148675771Y-99372856D01*
X148675771Y-99372856D02*
X148675771Y-99134761D01*
X148675771Y-99134761D02*
X148723390Y-99039523D01*
X148723390Y-99039523D02*
X148771009Y-98991904D01*
X148771009Y-98991904D02*
X148866247Y-98944285D01*
X148866247Y-98944285D02*
X149104342Y-98944285D01*
X149104342Y-98944285D02*
X149199580Y-98991904D01*
X149199580Y-98991904D02*
X149247200Y-99039523D01*
X149247200Y-99039523D02*
X149294819Y-99134761D01*
X149294819Y-99134761D02*
X149294819Y-99372856D01*
X149294819Y-99372856D02*
X149247200Y-99468094D01*
X149247200Y-99468094D02*
X149199580Y-99515713D01*
X124868843Y-137942214D02*
X125114569Y-137415443D01*
X124583128Y-137447342D02*
X125449154Y-136947342D01*
X125449154Y-136947342D02*
X125639630Y-137277256D01*
X125639630Y-137277256D02*
X125646010Y-137383545D01*
X125646010Y-137383545D02*
X125628580Y-137448593D01*
X125628580Y-137448593D02*
X125569911Y-137537452D01*
X125569911Y-137537452D02*
X125446193Y-137608880D01*
X125446193Y-137608880D02*
X125339905Y-137615260D01*
X125339905Y-137615260D02*
X125274856Y-137597830D01*
X125274856Y-137597830D02*
X125185998Y-137539161D01*
X125185998Y-137539161D02*
X124995521Y-137209247D01*
X125877725Y-137689649D02*
X125178366Y-138478325D01*
X125178366Y-138478325D02*
X126211058Y-138267000D01*
X125773605Y-139509307D02*
X125487890Y-139014436D01*
X125630747Y-139261872D02*
X126496773Y-138761872D01*
X126496773Y-138761872D02*
X126325436Y-138750821D01*
X126325436Y-138750821D02*
X126195338Y-138715962D01*
X126195338Y-138715962D02*
X126106480Y-138657293D01*
X159613253Y-107258071D02*
X159562673Y-106679012D01*
X159118381Y-106972357D02*
X159618381Y-106106332D01*
X159618381Y-106106332D02*
X159948296Y-106296808D01*
X159948296Y-106296808D02*
X160006965Y-106385666D01*
X160006965Y-106385666D02*
X160024394Y-106450715D01*
X160024394Y-106450715D02*
X160018015Y-106557003D01*
X160018015Y-106557003D02*
X159946586Y-106680721D01*
X159946586Y-106680721D02*
X159857728Y-106739390D01*
X159857728Y-106739390D02*
X159792679Y-106756820D01*
X159792679Y-106756820D02*
X159686391Y-106750440D01*
X159686391Y-106750440D02*
X159356476Y-106559964D01*
X160855560Y-106820617D02*
X160690603Y-106725379D01*
X160690603Y-106725379D02*
X160584315Y-106718999D01*
X160584315Y-106718999D02*
X160519266Y-106736429D01*
X160519266Y-106736429D02*
X160365359Y-106812528D01*
X160365359Y-106812528D02*
X160228882Y-106953676D01*
X160228882Y-106953676D02*
X160038405Y-107283590D01*
X160038405Y-107283590D02*
X160032026Y-107389878D01*
X160032026Y-107389878D02*
X160049455Y-107454927D01*
X160049455Y-107454927D02*
X160108124Y-107543786D01*
X160108124Y-107543786D02*
X160273082Y-107639024D01*
X160273082Y-107639024D02*
X160379370Y-107645403D01*
X160379370Y-107645403D02*
X160444419Y-107627974D01*
X160444419Y-107627974D02*
X160533277Y-107569305D01*
X160533277Y-107569305D02*
X160652325Y-107363108D01*
X160652325Y-107363108D02*
X160658704Y-107256820D01*
X160658704Y-107256820D02*
X160641275Y-107191771D01*
X160641275Y-107191771D02*
X160582606Y-107102913D01*
X160582606Y-107102913D02*
X160417648Y-107007675D01*
X160417648Y-107007675D02*
X160311360Y-107001295D01*
X160311360Y-107001295D02*
X160246311Y-107018725D01*
X160246311Y-107018725D02*
X160157453Y-107077394D01*
X164733333Y-138154819D02*
X164400000Y-137678628D01*
X164161905Y-138154819D02*
X164161905Y-137154819D01*
X164161905Y-137154819D02*
X164542857Y-137154819D01*
X164542857Y-137154819D02*
X164638095Y-137202438D01*
X164638095Y-137202438D02*
X164685714Y-137250057D01*
X164685714Y-137250057D02*
X164733333Y-137345295D01*
X164733333Y-137345295D02*
X164733333Y-137488152D01*
X164733333Y-137488152D02*
X164685714Y-137583390D01*
X164685714Y-137583390D02*
X164638095Y-137631009D01*
X164638095Y-137631009D02*
X164542857Y-137678628D01*
X164542857Y-137678628D02*
X164161905Y-137678628D01*
X165066667Y-137154819D02*
X165733333Y-137154819D01*
X165733333Y-137154819D02*
X165304762Y-138154819D01*
X139634761Y-136990057D02*
X139539523Y-136942438D01*
X139539523Y-136942438D02*
X139444285Y-136847200D01*
X139444285Y-136847200D02*
X139301428Y-136704342D01*
X139301428Y-136704342D02*
X139206190Y-136656723D01*
X139206190Y-136656723D02*
X139110952Y-136656723D01*
X139158571Y-136894819D02*
X139063333Y-136847200D01*
X139063333Y-136847200D02*
X138968095Y-136751961D01*
X138968095Y-136751961D02*
X138920476Y-136561485D01*
X138920476Y-136561485D02*
X138920476Y-136228152D01*
X138920476Y-136228152D02*
X138968095Y-136037676D01*
X138968095Y-136037676D02*
X139063333Y-135942438D01*
X139063333Y-135942438D02*
X139158571Y-135894819D01*
X139158571Y-135894819D02*
X139349047Y-135894819D01*
X139349047Y-135894819D02*
X139444285Y-135942438D01*
X139444285Y-135942438D02*
X139539523Y-136037676D01*
X139539523Y-136037676D02*
X139587142Y-136228152D01*
X139587142Y-136228152D02*
X139587142Y-136561485D01*
X139587142Y-136561485D02*
X139539523Y-136751961D01*
X139539523Y-136751961D02*
X139444285Y-136847200D01*
X139444285Y-136847200D02*
X139349047Y-136894819D01*
X139349047Y-136894819D02*
X139158571Y-136894819D01*
X140539523Y-136894819D02*
X139968095Y-136894819D01*
X140253809Y-136894819D02*
X140253809Y-135894819D01*
X140253809Y-135894819D02*
X140158571Y-136037676D01*
X140158571Y-136037676D02*
X140063333Y-136132914D01*
X140063333Y-136132914D02*
X139968095Y-136180533D01*
X135191905Y-123294819D02*
X135191905Y-122294819D01*
X135191905Y-122294819D02*
X135430000Y-122294819D01*
X135430000Y-122294819D02*
X135572857Y-122342438D01*
X135572857Y-122342438D02*
X135668095Y-122437676D01*
X135668095Y-122437676D02*
X135715714Y-122532914D01*
X135715714Y-122532914D02*
X135763333Y-122723390D01*
X135763333Y-122723390D02*
X135763333Y-122866247D01*
X135763333Y-122866247D02*
X135715714Y-123056723D01*
X135715714Y-123056723D02*
X135668095Y-123151961D01*
X135668095Y-123151961D02*
X135572857Y-123247200D01*
X135572857Y-123247200D02*
X135430000Y-123294819D01*
X135430000Y-123294819D02*
X135191905Y-123294819D01*
X136096667Y-122294819D02*
X136715714Y-122294819D01*
X136715714Y-122294819D02*
X136382381Y-122675771D01*
X136382381Y-122675771D02*
X136525238Y-122675771D01*
X136525238Y-122675771D02*
X136620476Y-122723390D01*
X136620476Y-122723390D02*
X136668095Y-122771009D01*
X136668095Y-122771009D02*
X136715714Y-122866247D01*
X136715714Y-122866247D02*
X136715714Y-123104342D01*
X136715714Y-123104342D02*
X136668095Y-123199580D01*
X136668095Y-123199580D02*
X136620476Y-123247200D01*
X136620476Y-123247200D02*
X136525238Y-123294819D01*
X136525238Y-123294819D02*
X136239524Y-123294819D01*
X136239524Y-123294819D02*
X136144286Y-123247200D01*
X136144286Y-123247200D02*
X136096667Y-123199580D01*
X128591905Y-118494819D02*
X128591905Y-117494819D01*
X128591905Y-117494819D02*
X128830000Y-117494819D01*
X128830000Y-117494819D02*
X128972857Y-117542438D01*
X128972857Y-117542438D02*
X129068095Y-117637676D01*
X129068095Y-117637676D02*
X129115714Y-117732914D01*
X129115714Y-117732914D02*
X129163333Y-117923390D01*
X129163333Y-117923390D02*
X129163333Y-118066247D01*
X129163333Y-118066247D02*
X129115714Y-118256723D01*
X129115714Y-118256723D02*
X129068095Y-118351961D01*
X129068095Y-118351961D02*
X128972857Y-118447200D01*
X128972857Y-118447200D02*
X128830000Y-118494819D01*
X128830000Y-118494819D02*
X128591905Y-118494819D01*
X130115714Y-118494819D02*
X129544286Y-118494819D01*
X129830000Y-118494819D02*
X129830000Y-117494819D01*
X129830000Y-117494819D02*
X129734762Y-117637676D01*
X129734762Y-117637676D02*
X129639524Y-117732914D01*
X129639524Y-117732914D02*
X129544286Y-117780533D01*
X128016316Y-95423374D02*
X127770736Y-94896535D01*
X127453569Y-95324146D02*
X127627217Y-94339338D01*
X127627217Y-94339338D02*
X128002382Y-94405490D01*
X128002382Y-94405490D02*
X128087904Y-94468923D01*
X128087904Y-94468923D02*
X128126530Y-94524088D01*
X128126530Y-94524088D02*
X128156888Y-94626148D01*
X128156888Y-94626148D02*
X128132081Y-94766835D01*
X128132081Y-94766835D02*
X128068648Y-94852357D01*
X128068648Y-94852357D02*
X128013483Y-94890984D01*
X128013483Y-94890984D02*
X127911423Y-94921342D01*
X127911423Y-94921342D02*
X127536258Y-94855190D01*
X128954228Y-95588753D02*
X128391481Y-95489525D01*
X128672854Y-95539139D02*
X128846503Y-94554331D01*
X128846503Y-94554331D02*
X128727904Y-94678480D01*
X128727904Y-94678480D02*
X128617575Y-94755733D01*
X128617575Y-94755733D02*
X128515515Y-94786091D01*
D11*
X155971619Y-142659255D02*
X154562080Y-142146225D01*
X154562080Y-142146225D02*
X154684230Y-141810621D01*
X154684230Y-141810621D02*
X154824641Y-141633688D01*
X154824641Y-141633688D02*
X155007743Y-141548306D01*
X155007743Y-141548306D02*
X155166415Y-141530045D01*
X155166415Y-141530045D02*
X155459329Y-141560645D01*
X155459329Y-141560645D02*
X155660691Y-141633935D01*
X155660691Y-141633935D02*
X155904745Y-141798776D01*
X155904745Y-141798776D02*
X156014557Y-141914756D01*
X156014557Y-141914756D02*
X156099938Y-142097858D01*
X156099938Y-142097858D02*
X156093769Y-142323651D01*
X156093769Y-142323651D02*
X155971619Y-142659255D01*
X156484650Y-141249717D02*
X155544957Y-140907696D01*
X155813440Y-141005416D02*
X155703629Y-140889436D01*
X155703629Y-140889436D02*
X155660938Y-140797885D01*
X155660938Y-140797885D02*
X155642677Y-140639213D01*
X155642677Y-140639213D02*
X155691537Y-140504971D01*
X156802239Y-140377145D02*
X155862547Y-140035125D01*
X155392701Y-139864115D02*
X155435391Y-139955666D01*
X155435391Y-139955666D02*
X155526942Y-139912975D01*
X155526942Y-139912975D02*
X155484251Y-139821424D01*
X155484251Y-139821424D02*
X155392701Y-139864115D01*
X155392701Y-139864115D02*
X155526942Y-139912975D01*
X156954989Y-139748627D02*
X157070970Y-139638815D01*
X157070970Y-139638815D02*
X157168690Y-139370331D01*
X157168690Y-139370331D02*
X157150429Y-139211660D01*
X157150429Y-139211660D02*
X157040617Y-139095679D01*
X157040617Y-139095679D02*
X156973496Y-139071249D01*
X156973496Y-139071249D02*
X156814824Y-139089510D01*
X156814824Y-139089510D02*
X156698843Y-139199321D01*
X156698843Y-139199321D02*
X156625553Y-139400684D01*
X156625553Y-139400684D02*
X156509572Y-139510496D01*
X156509572Y-139510496D02*
X156350901Y-139528757D01*
X156350901Y-139528757D02*
X156283780Y-139504327D01*
X156283780Y-139504327D02*
X156173968Y-139388346D01*
X156173968Y-139388346D02*
X156155707Y-139229674D01*
X156155707Y-139229674D02*
X156228997Y-139028311D01*
X156228997Y-139028311D02*
X156344978Y-138918500D01*
X156448867Y-138424223D02*
X156644307Y-137887256D01*
X156052311Y-138051850D02*
X157260487Y-138491590D01*
X157260487Y-138491590D02*
X157419159Y-138473329D01*
X157419159Y-138473329D02*
X157535140Y-138363518D01*
X157535140Y-138363518D02*
X157584000Y-138229276D01*
X157755010Y-137759429D02*
X156815318Y-137417409D01*
X156345471Y-137246399D02*
X156388162Y-137337950D01*
X156388162Y-137337950D02*
X156479713Y-137295259D01*
X156479713Y-137295259D02*
X156437022Y-137203708D01*
X156437022Y-137203708D02*
X156345471Y-137246399D01*
X156345471Y-137246399D02*
X156479713Y-137295259D01*
X158255949Y-135965426D02*
X158347500Y-135922735D01*
X158347500Y-135922735D02*
X158390190Y-136014286D01*
X158390190Y-136014286D02*
X158298640Y-136056977D01*
X158298640Y-136056977D02*
X158255949Y-135965426D01*
X158255949Y-135965426D02*
X158390190Y-136014286D01*
X157517619Y-135696696D02*
X157609170Y-135654005D01*
X157609170Y-135654005D02*
X157651861Y-135745556D01*
X157651861Y-135745556D02*
X157560310Y-135788247D01*
X157560310Y-135788247D02*
X157517619Y-135696696D01*
X157517619Y-135696696D02*
X157651861Y-135745556D01*
X158634491Y-135343077D02*
X157224952Y-134830046D01*
X157224952Y-134830046D02*
X157347102Y-134494442D01*
X157347102Y-134494442D02*
X157487513Y-134317509D01*
X157487513Y-134317509D02*
X157670615Y-134232127D01*
X157670615Y-134232127D02*
X157829286Y-134213866D01*
X157829286Y-134213866D02*
X158122200Y-134244466D01*
X158122200Y-134244466D02*
X158323563Y-134317756D01*
X158323563Y-134317756D02*
X158567616Y-134482597D01*
X158567616Y-134482597D02*
X158677428Y-134598578D01*
X158677428Y-134598578D02*
X158762810Y-134781679D01*
X158762810Y-134781679D02*
X158756641Y-135007472D01*
X158756641Y-135007472D02*
X158634491Y-135343077D01*
D10*
X152614285Y-112431009D02*
X152757142Y-112478628D01*
X152757142Y-112478628D02*
X152804761Y-112526247D01*
X152804761Y-112526247D02*
X152852380Y-112621485D01*
X152852380Y-112621485D02*
X152852380Y-112764342D01*
X152852380Y-112764342D02*
X152804761Y-112859580D01*
X152804761Y-112859580D02*
X152757142Y-112907200D01*
X152757142Y-112907200D02*
X152661904Y-112954819D01*
X152661904Y-112954819D02*
X152280952Y-112954819D01*
X152280952Y-112954819D02*
X152280952Y-111954819D01*
X152280952Y-111954819D02*
X152614285Y-111954819D01*
X152614285Y-111954819D02*
X152709523Y-112002438D01*
X152709523Y-112002438D02*
X152757142Y-112050057D01*
X152757142Y-112050057D02*
X152804761Y-112145295D01*
X152804761Y-112145295D02*
X152804761Y-112240533D01*
X152804761Y-112240533D02*
X152757142Y-112335771D01*
X152757142Y-112335771D02*
X152709523Y-112383390D01*
X152709523Y-112383390D02*
X152614285Y-112431009D01*
X152614285Y-112431009D02*
X152280952Y-112431009D01*
X153138095Y-111954819D02*
X153709523Y-111954819D01*
X153423809Y-112954819D02*
X153423809Y-111954819D01*
X153995238Y-112050057D02*
X154042857Y-112002438D01*
X154042857Y-112002438D02*
X154138095Y-111954819D01*
X154138095Y-111954819D02*
X154376190Y-111954819D01*
X154376190Y-111954819D02*
X154471428Y-112002438D01*
X154471428Y-112002438D02*
X154519047Y-112050057D01*
X154519047Y-112050057D02*
X154566666Y-112145295D01*
X154566666Y-112145295D02*
X154566666Y-112240533D01*
X154566666Y-112240533D02*
X154519047Y-112383390D01*
X154519047Y-112383390D02*
X153947619Y-112954819D01*
X153947619Y-112954819D02*
X154566666Y-112954819D01*
X130103298Y-102942856D02*
X129692339Y-102531783D01*
X129540551Y-103042084D02*
X129366902Y-102057276D01*
X129366902Y-102057276D02*
X129742067Y-101991124D01*
X129742067Y-101991124D02*
X129844127Y-102021482D01*
X129844127Y-102021482D02*
X129899292Y-102060109D01*
X129899292Y-102060109D02*
X129962726Y-102145631D01*
X129962726Y-102145631D02*
X129987532Y-102286318D01*
X129987532Y-102286318D02*
X129957175Y-102388378D01*
X129957175Y-102388378D02*
X129918548Y-102443542D01*
X129918548Y-102443542D02*
X129833026Y-102506976D01*
X129833026Y-102506976D02*
X129457861Y-102573128D01*
X130321352Y-101985688D02*
X130359979Y-101930523D01*
X130359979Y-101930523D02*
X130445501Y-101867090D01*
X130445501Y-101867090D02*
X130679979Y-101825745D01*
X130679979Y-101825745D02*
X130782040Y-101856103D01*
X130782040Y-101856103D02*
X130837204Y-101894729D01*
X130837204Y-101894729D02*
X130900638Y-101980252D01*
X130900638Y-101980252D02*
X130917176Y-102074043D01*
X130917176Y-102074043D02*
X130895087Y-102222999D01*
X130895087Y-102222999D02*
X130431567Y-102884973D01*
X130431567Y-102884973D02*
X131041210Y-102777477D01*
X133894819Y-97268094D02*
X132894819Y-97268094D01*
X132894819Y-97268094D02*
X132894819Y-97029999D01*
X132894819Y-97029999D02*
X132942438Y-96887142D01*
X132942438Y-96887142D02*
X133037676Y-96791904D01*
X133037676Y-96791904D02*
X133132914Y-96744285D01*
X133132914Y-96744285D02*
X133323390Y-96696666D01*
X133323390Y-96696666D02*
X133466247Y-96696666D01*
X133466247Y-96696666D02*
X133656723Y-96744285D01*
X133656723Y-96744285D02*
X133751961Y-96791904D01*
X133751961Y-96791904D02*
X133847200Y-96887142D01*
X133847200Y-96887142D02*
X133894819Y-97029999D01*
X133894819Y-97029999D02*
X133894819Y-97268094D01*
X133228152Y-95839523D02*
X133894819Y-95839523D01*
X132847200Y-96077618D02*
X133561485Y-96315713D01*
X133561485Y-96315713D02*
X133561485Y-95696666D01*
X150146573Y-82889448D02*
X149619734Y-83135028D01*
X150047345Y-83452195D02*
X149062537Y-83278547D01*
X149062537Y-83278547D02*
X149128689Y-82903382D01*
X149128689Y-82903382D02*
X149192122Y-82817860D01*
X149192122Y-82817860D02*
X149247287Y-82779234D01*
X149247287Y-82779234D02*
X149349347Y-82748876D01*
X149349347Y-82748876D02*
X149490034Y-82773683D01*
X149490034Y-82773683D02*
X149575556Y-82837116D01*
X149575556Y-82837116D02*
X149614183Y-82892281D01*
X149614183Y-82892281D02*
X149644541Y-82994341D01*
X149644541Y-82994341D02*
X149578389Y-83369506D01*
X149638875Y-81929562D02*
X150295414Y-82045327D01*
X149222366Y-82097888D02*
X149884455Y-82456401D01*
X149884455Y-82456401D02*
X149991951Y-81846758D01*
X169191905Y-122694819D02*
X169191905Y-121694819D01*
X169191905Y-121694819D02*
X169430000Y-121694819D01*
X169430000Y-121694819D02*
X169572857Y-121742438D01*
X169572857Y-121742438D02*
X169668095Y-121837676D01*
X169668095Y-121837676D02*
X169715714Y-121932914D01*
X169715714Y-121932914D02*
X169763333Y-122123390D01*
X169763333Y-122123390D02*
X169763333Y-122266247D01*
X169763333Y-122266247D02*
X169715714Y-122456723D01*
X169715714Y-122456723D02*
X169668095Y-122551961D01*
X169668095Y-122551961D02*
X169572857Y-122647200D01*
X169572857Y-122647200D02*
X169430000Y-122694819D01*
X169430000Y-122694819D02*
X169191905Y-122694819D01*
X170620476Y-121694819D02*
X170430000Y-121694819D01*
X170430000Y-121694819D02*
X170334762Y-121742438D01*
X170334762Y-121742438D02*
X170287143Y-121790057D01*
X170287143Y-121790057D02*
X170191905Y-121932914D01*
X170191905Y-121932914D02*
X170144286Y-122123390D01*
X170144286Y-122123390D02*
X170144286Y-122504342D01*
X170144286Y-122504342D02*
X170191905Y-122599580D01*
X170191905Y-122599580D02*
X170239524Y-122647200D01*
X170239524Y-122647200D02*
X170334762Y-122694819D01*
X170334762Y-122694819D02*
X170525238Y-122694819D01*
X170525238Y-122694819D02*
X170620476Y-122647200D01*
X170620476Y-122647200D02*
X170668095Y-122599580D01*
X170668095Y-122599580D02*
X170715714Y-122504342D01*
X170715714Y-122504342D02*
X170715714Y-122266247D01*
X170715714Y-122266247D02*
X170668095Y-122171009D01*
X170668095Y-122171009D02*
X170620476Y-122123390D01*
X170620476Y-122123390D02*
X170525238Y-122075771D01*
X170525238Y-122075771D02*
X170334762Y-122075771D01*
X170334762Y-122075771D02*
X170239524Y-122123390D01*
X170239524Y-122123390D02*
X170191905Y-122171009D01*
X170191905Y-122171009D02*
X170144286Y-122266247D01*
X163433333Y-100484819D02*
X163100000Y-100008628D01*
X162861905Y-100484819D02*
X162861905Y-99484819D01*
X162861905Y-99484819D02*
X163242857Y-99484819D01*
X163242857Y-99484819D02*
X163338095Y-99532438D01*
X163338095Y-99532438D02*
X163385714Y-99580057D01*
X163385714Y-99580057D02*
X163433333Y-99675295D01*
X163433333Y-99675295D02*
X163433333Y-99818152D01*
X163433333Y-99818152D02*
X163385714Y-99913390D01*
X163385714Y-99913390D02*
X163338095Y-99961009D01*
X163338095Y-99961009D02*
X163242857Y-100008628D01*
X163242857Y-100008628D02*
X162861905Y-100008628D01*
X164338095Y-99484819D02*
X163861905Y-99484819D01*
X163861905Y-99484819D02*
X163814286Y-99961009D01*
X163814286Y-99961009D02*
X163861905Y-99913390D01*
X163861905Y-99913390D02*
X163957143Y-99865771D01*
X163957143Y-99865771D02*
X164195238Y-99865771D01*
X164195238Y-99865771D02*
X164290476Y-99913390D01*
X164290476Y-99913390D02*
X164338095Y-99961009D01*
X164338095Y-99961009D02*
X164385714Y-100056247D01*
X164385714Y-100056247D02*
X164385714Y-100294342D01*
X164385714Y-100294342D02*
X164338095Y-100389580D01*
X164338095Y-100389580D02*
X164290476Y-100437200D01*
X164290476Y-100437200D02*
X164195238Y-100484819D01*
X164195238Y-100484819D02*
X163957143Y-100484819D01*
X163957143Y-100484819D02*
X163861905Y-100437200D01*
X163861905Y-100437200D02*
X163814286Y-100389580D01*
D12*
%TO.C,D2*%
X134970000Y-117455000D02*
X134970000Y-120545000D01*
X134970000Y-117455170D02*
G75*
G02*
X140520000Y-119000000I2560000J-1544830D01*
G01*
X140520000Y-119000000D02*
G75*
G02*
X134970000Y-120544830I-2990000J0D01*
G01*
X140030000Y-119000000D02*
G75*
G02*
X135030000Y-119000000I-2500000J0D01*
G01*
X135030000Y-119000000D02*
G75*
G02*
X140030000Y-119000000I2500000J0D01*
G01*
%TO.C,R3*%
X140230000Y-79320000D02*
X140560000Y-79320000D01*
X140230000Y-85860000D02*
X140230000Y-79320000D01*
X140560000Y-85860000D02*
X140230000Y-85860000D01*
X142640000Y-85860000D02*
X142970000Y-85860000D01*
X142970000Y-79320000D02*
X142640000Y-79320000D01*
X142970000Y-85860000D02*
X142970000Y-79320000D01*
%TO.C,D5*%
X151255000Y-102290000D02*
X154345000Y-102290000D01*
X151255170Y-102290000D02*
G75*
G02*
X152800000Y-96740000I1544830J2560000D01*
G01*
X152800000Y-96740000D02*
G75*
G02*
X154344830Y-102290000I0J-2990000D01*
G01*
X155300000Y-99730000D02*
G75*
G02*
X150300000Y-99730000I-2500000J0D01*
G01*
X150300000Y-99730000D02*
G75*
G02*
X155300000Y-99730000I2500000J0D01*
G01*
%TO.C,RV1*%
X124110116Y-133438422D02*
X128483544Y-130913422D01*
X128985116Y-141882170D02*
X124110116Y-133438422D01*
X128985116Y-141882170D02*
X133358543Y-139357170D01*
X133358543Y-139357170D02*
X128483544Y-130913422D01*
%TO.C,R6*%
X155283095Y-108551455D02*
X160946903Y-111821455D01*
X155448097Y-108265666D02*
X155283095Y-108551455D01*
X156488097Y-106464334D02*
X156653097Y-106178545D01*
X156653097Y-106178545D02*
X162316902Y-109448545D01*
X160946903Y-111821455D02*
X161111903Y-111535666D01*
X162316902Y-109448545D02*
X162151903Y-109734333D01*
%TO.C,R7*%
X163350000Y-138450000D02*
X166400000Y-138450000D01*
X163350000Y-142750000D02*
X166400000Y-142750000D01*
X163350000Y-142750000D02*
G75*
G02*
X163371766Y-138434475I1550000J2150000D01*
G01*
X166400000Y-138450000D02*
G75*
G02*
X166444513Y-142718249I-1500000J-2150000D01*
G01*
%TO.C,Q1*%
X137930000Y-141850000D02*
X141530000Y-141850000D01*
X137891522Y-141838478D02*
G75*
G02*
X139730000Y-137399999I1838478J1838478D01*
G01*
X139730000Y-137400000D02*
G75*
G02*
X141568478Y-141838478I0J-2600000D01*
G01*
%TO.C,D3*%
X133370000Y-125255000D02*
X133370000Y-128345000D01*
X133370000Y-125255170D02*
G75*
G02*
X138920000Y-126800000I2560000J-1544830D01*
G01*
X138920000Y-126800000D02*
G75*
G02*
X133370000Y-128344830I-2990000J0D01*
G01*
X138430000Y-126800000D02*
G75*
G02*
X133430000Y-126800000I-2500000J0D01*
G01*
X133430000Y-126800000D02*
G75*
G02*
X138430000Y-126800000I2500000J0D01*
G01*
%TO.C,D1*%
X126770000Y-120455000D02*
X126770000Y-123545000D01*
X126770000Y-120455170D02*
G75*
G02*
X132320000Y-122000000I2560000J-1544830D01*
G01*
X132320000Y-122000000D02*
G75*
G02*
X126770000Y-123544830I-2990000J0D01*
G01*
X131830000Y-122000000D02*
G75*
G02*
X126830000Y-122000000I-2500000J0D01*
G01*
X126830000Y-122000000D02*
G75*
G02*
X131830000Y-122000000I2500000J0D01*
G01*
%TO.C,R1*%
X124389663Y-98119758D02*
X130830306Y-99255417D01*
X124446967Y-97794771D02*
X124389663Y-98119758D01*
X124808155Y-95746371D02*
X124865459Y-95421384D01*
X124865459Y-95421384D02*
X131306102Y-96557043D01*
X130830306Y-99255417D02*
X130887610Y-98930430D01*
X131306102Y-96557043D02*
X131248798Y-96882030D01*
D13*
%TO.C,Dristi :D*%
G36*
X140944661Y-140689987D02*
G01*
X141097070Y-140780869D01*
X141188073Y-140972168D01*
X141231557Y-141296471D01*
X141241407Y-141786365D01*
X141240668Y-141895967D01*
X141232661Y-142766532D01*
X140924899Y-142796754D01*
X140662784Y-142778968D01*
X140489616Y-142699455D01*
X140418039Y-142513971D01*
X140375190Y-142134940D01*
X140362096Y-141619435D01*
X140362096Y-140666935D01*
X140716960Y-140666935D01*
X140944661Y-140689987D01*
G37*
G36*
X149068813Y-140598943D02*
G01*
X149232846Y-140737957D01*
X149326026Y-141022938D01*
X149357749Y-141475114D01*
X149353220Y-141779084D01*
X149336392Y-142205326D01*
X149311690Y-142468429D01*
X149265738Y-142610021D01*
X149185163Y-142671726D01*
X149058975Y-142694895D01*
X148812640Y-142665391D01*
X148670767Y-142576999D01*
X148602570Y-142372388D01*
X148572860Y-141973400D01*
X148577114Y-141522023D01*
X148595248Y-141087168D01*
X148622016Y-140816337D01*
X148668187Y-140668726D01*
X148744533Y-140603530D01*
X148824532Y-140584670D01*
X149068813Y-140598943D01*
G37*
G36*
X144313146Y-103736652D02*
G01*
X144565825Y-104013078D01*
X144633343Y-104103225D01*
X145088998Y-104700476D01*
X145465537Y-105132770D01*
X145779405Y-105416328D01*
X146047050Y-105567375D01*
X146144998Y-105594352D01*
X146470784Y-105623041D01*
X146759606Y-105557479D01*
X147070576Y-105375068D01*
X147386807Y-105119642D01*
X147655469Y-104904327D01*
X147875518Y-104758470D01*
X147978083Y-104717741D01*
X148189157Y-104803061D01*
X148313697Y-105022384D01*
X148344251Y-105320757D01*
X148273369Y-105643227D01*
X148136286Y-105884609D01*
X147762829Y-106208808D01*
X147260568Y-106436866D01*
X146687233Y-106557282D01*
X146100552Y-106558555D01*
X145558258Y-106429182D01*
X145507886Y-106408267D01*
X144889624Y-106040770D01*
X144366944Y-105537182D01*
X144209257Y-105323611D01*
X143937167Y-104912455D01*
X143609107Y-105189402D01*
X142995651Y-105592015D01*
X142326964Y-105801905D01*
X141847177Y-105839856D01*
X141184303Y-105766347D01*
X140633821Y-105554956D01*
X140216444Y-105219389D01*
X139952884Y-104773348D01*
X139890969Y-104545548D01*
X139883183Y-104250791D01*
X139947910Y-103964865D01*
X140061899Y-103757060D01*
X140176865Y-103693548D01*
X140286747Y-103762470D01*
X140491160Y-103943245D01*
X140746047Y-104196885D01*
X140748470Y-104199414D01*
X141186657Y-104604254D01*
X141578280Y-104831926D01*
X141955615Y-104882273D01*
X142350943Y-104755135D01*
X142796542Y-104450353D01*
X143095327Y-104187859D01*
X143501054Y-103837658D01*
X143815864Y-103647011D01*
X144074860Y-103613986D01*
X144313146Y-103736652D01*
G37*
G36*
X165906614Y-81394535D02*
G01*
X166138081Y-81503711D01*
X166330702Y-81729590D01*
X166525231Y-82108107D01*
X166580576Y-82234617D01*
X166891273Y-83122926D01*
X167137632Y-84162745D01*
X167317126Y-85310296D01*
X167427225Y-86521797D01*
X167465402Y-87753470D01*
X167429127Y-88961534D01*
X167315872Y-90102208D01*
X167123108Y-91131714D01*
X167099836Y-91225010D01*
X166927008Y-91793146D01*
X166711272Y-92341364D01*
X166474987Y-92823538D01*
X166240516Y-93193544D01*
X166048820Y-93393016D01*
X165694053Y-93532850D01*
X165309929Y-93518807D01*
X165121472Y-93443127D01*
X164986563Y-93314477D01*
X164777227Y-93058545D01*
X164529410Y-92720606D01*
X164412385Y-92550072D01*
X163087482Y-90702418D01*
X161716576Y-89035770D01*
X160307994Y-87560111D01*
X160023207Y-87289446D01*
X159546051Y-86833314D01*
X159212081Y-86488145D01*
X159005514Y-86235722D01*
X158910564Y-86057831D01*
X158899999Y-85993262D01*
X158935739Y-85896576D01*
X160027910Y-85896576D01*
X161312685Y-87230154D01*
X162631584Y-88667221D01*
X163833446Y-90114949D01*
X164883490Y-91531245D01*
X164968612Y-91654641D01*
X165597239Y-92571783D01*
X165733125Y-92238763D01*
X165817316Y-91994043D01*
X165930608Y-91613391D01*
X166054613Y-91160130D01*
X166118434Y-90911943D01*
X166429669Y-89266275D01*
X166538483Y-87612099D01*
X166444706Y-85944300D01*
X166148164Y-84257762D01*
X165858933Y-83189114D01*
X165554428Y-82195568D01*
X165167758Y-82331993D01*
X164296784Y-82707544D01*
X163354439Y-83238284D01*
X162373374Y-83902942D01*
X161386242Y-84680248D01*
X160872221Y-85130209D01*
X160027910Y-85896576D01*
X158935739Y-85896576D01*
X158978771Y-85780162D01*
X159198627Y-85469646D01*
X159534876Y-85084620D01*
X159962829Y-84647991D01*
X160457793Y-84182668D01*
X160995080Y-83711556D01*
X161549999Y-83257564D01*
X162097859Y-82843598D01*
X162613969Y-82492566D01*
X162789526Y-82384655D01*
X163335999Y-82092182D01*
X163934192Y-81825160D01*
X164530988Y-81602869D01*
X165073271Y-81444590D01*
X165507925Y-81369603D01*
X165595542Y-81366128D01*
X165906614Y-81394535D01*
G37*
G36*
X138799556Y-114340543D02*
G01*
X139585993Y-114618614D01*
X140329388Y-115053954D01*
X140995570Y-115623560D01*
X141550372Y-116304431D01*
X141853759Y-116834086D01*
X142144628Y-117606338D01*
X142329789Y-118500860D01*
X142409327Y-119527688D01*
X142383327Y-120696859D01*
X142251875Y-122018409D01*
X142015057Y-123502374D01*
X141914924Y-124023790D01*
X141749249Y-124836084D01*
X141603903Y-125490102D01*
X141464863Y-126029507D01*
X141318104Y-126497959D01*
X141149604Y-126939121D01*
X140945338Y-127396654D01*
X140691284Y-127914221D01*
X140620549Y-128053784D01*
X140377644Y-128564093D01*
X140137216Y-129124300D01*
X139941068Y-129635473D01*
X139895076Y-129770705D01*
X139709522Y-130278803D01*
X139491353Y-130779865D01*
X139262063Y-131233320D01*
X139043147Y-131598603D01*
X138856099Y-131835144D01*
X138767640Y-131898577D01*
X138575378Y-131945503D01*
X138355618Y-131929395D01*
X138058358Y-131839612D01*
X137633599Y-131665517D01*
X137596774Y-131649450D01*
X137128582Y-131464231D01*
X136609892Y-131288002D01*
X136265322Y-131188818D01*
X135820523Y-131068932D01*
X135295174Y-130917663D01*
X134804622Y-130768260D01*
X134294989Y-130620300D01*
X133734416Y-130477361D01*
X133262561Y-130374139D01*
X132816418Y-130281943D01*
X132411903Y-130179257D01*
X132011711Y-130051773D01*
X131578540Y-129885180D01*
X131075087Y-129665167D01*
X130464046Y-129377425D01*
X129734802Y-129020829D01*
X129103962Y-128706358D01*
X128618097Y-128453548D01*
X128237160Y-128236163D01*
X127921102Y-128027971D01*
X127629874Y-127802737D01*
X127323430Y-127534227D01*
X126989427Y-127222444D01*
X126427064Y-126672703D01*
X125998113Y-126206217D01*
X125672604Y-125782687D01*
X125420572Y-125361810D01*
X125212047Y-124903286D01*
X125154335Y-124754601D01*
X124814102Y-123647587D01*
X124687628Y-122810031D01*
X125287196Y-122810031D01*
X125309404Y-123245233D01*
X125397813Y-123634277D01*
X125576584Y-124078456D01*
X125603723Y-124136997D01*
X125915965Y-124745443D01*
X126264571Y-125295814D01*
X126675232Y-125815754D01*
X127173644Y-126332903D01*
X127785500Y-126874905D01*
X128536493Y-127469401D01*
X129071859Y-127868137D01*
X129479507Y-128150530D01*
X129883787Y-128390346D01*
X130337668Y-128614259D01*
X130894120Y-128848943D01*
X131427504Y-129054409D01*
X132379655Y-129401532D01*
X133218832Y-129686365D01*
X133927893Y-129903754D01*
X134489698Y-130048545D01*
X134887107Y-130115586D01*
X134970932Y-130119762D01*
X135213858Y-130154589D01*
X135581635Y-130245621D01*
X136007872Y-130375674D01*
X136157981Y-130427020D01*
X136579382Y-130566382D01*
X136955383Y-130674350D01*
X137224293Y-130733783D01*
X137284594Y-130740049D01*
X137560439Y-130782900D01*
X137879401Y-130876609D01*
X137904032Y-130885886D01*
X138184322Y-130989777D01*
X138336887Y-131010612D01*
X138426715Y-130934761D01*
X138514471Y-130757862D01*
X138675287Y-130401333D01*
X138890910Y-129907214D01*
X139143962Y-129316955D01*
X139417063Y-128672001D01*
X139692834Y-128013801D01*
X139953898Y-127383801D01*
X140182874Y-126823448D01*
X140362384Y-126374191D01*
X140463276Y-126110129D01*
X140723201Y-125312874D01*
X140968709Y-124400845D01*
X141191157Y-123421433D01*
X141381904Y-122422027D01*
X141532308Y-121450019D01*
X141633726Y-120552799D01*
X141677516Y-119777757D01*
X141675513Y-119462587D01*
X141657704Y-119043008D01*
X141626426Y-118723680D01*
X141565053Y-118446348D01*
X141456961Y-118152756D01*
X141285524Y-117784649D01*
X141079032Y-117372529D01*
X140671291Y-116611130D01*
X140295623Y-116027035D01*
X139923947Y-115601744D01*
X139528178Y-115316756D01*
X139080234Y-115153568D01*
X138552032Y-115093679D01*
X137915490Y-115118589D01*
X137691349Y-115140683D01*
X136954018Y-115249872D01*
X136355123Y-115417540D01*
X135831735Y-115673659D01*
X135320921Y-116048200D01*
X134825959Y-116505352D01*
X134446248Y-116894916D01*
X134185006Y-117207923D01*
X134003518Y-117499167D01*
X133863069Y-117823440D01*
X133830486Y-117914215D01*
X133603545Y-118564318D01*
X133964920Y-118986503D01*
X134308664Y-119457502D01*
X134607202Y-119993673D01*
X134821539Y-120518208D01*
X134898803Y-120826002D01*
X134914998Y-121326437D01*
X134813483Y-121788360D01*
X134615539Y-122171310D01*
X134342449Y-122434827D01*
X134015495Y-122538451D01*
X133997906Y-122538709D01*
X133513704Y-122443901D01*
X133089735Y-122179245D01*
X132739779Y-121774397D01*
X132477614Y-121259011D01*
X132317022Y-120662743D01*
X132310937Y-120575647D01*
X132987903Y-120575647D01*
X133049708Y-120974881D01*
X133212596Y-121324738D01*
X133442773Y-121579287D01*
X133706446Y-121692599D01*
X133807257Y-121689269D01*
X133891274Y-121628605D01*
X133937542Y-121457412D01*
X133953665Y-121137109D01*
X133953273Y-120948467D01*
X133918286Y-120421409D01*
X133815343Y-120010749D01*
X133720748Y-119798991D01*
X133572496Y-119543992D01*
X133449637Y-119387329D01*
X133409413Y-119363709D01*
X133314770Y-119453925D01*
X133203590Y-119682962D01*
X133097581Y-119988404D01*
X133018451Y-120307835D01*
X132987903Y-120575647D01*
X132310937Y-120575647D01*
X132271781Y-120015247D01*
X132355672Y-119346178D01*
X132413231Y-119128395D01*
X132555496Y-118655686D01*
X132029159Y-118471996D01*
X131712991Y-118384146D01*
X131335650Y-118327893D01*
X130849116Y-118298423D01*
X130222580Y-118290882D01*
X129687712Y-118293820D01*
X129303554Y-118306931D01*
X129015979Y-118340455D01*
X128770860Y-118404633D01*
X128514067Y-118509706D01*
X128191474Y-118665913D01*
X128161390Y-118680833D01*
X127619185Y-118984869D01*
X127071771Y-119352657D01*
X126565584Y-119747657D01*
X126147060Y-120133329D01*
X125862635Y-120473133D01*
X125841329Y-120506467D01*
X125638274Y-120942188D01*
X125466483Y-121507613D01*
X125343928Y-122128040D01*
X125288578Y-122728765D01*
X125287196Y-122810031D01*
X124687628Y-122810031D01*
X124659560Y-122624152D01*
X124691216Y-121680313D01*
X124909581Y-120812088D01*
X125315163Y-120015494D01*
X125845094Y-119351877D01*
X126257074Y-118947475D01*
X126659189Y-118623584D01*
X127091096Y-118360879D01*
X127592454Y-118140034D01*
X128202919Y-117941723D01*
X128962150Y-117746623D01*
X129297868Y-117669316D01*
X129970550Y-117533312D01*
X130516368Y-117467861D01*
X131001373Y-117474658D01*
X131491620Y-117555397D01*
X132053160Y-117711773D01*
X132149485Y-117742458D01*
X132483857Y-117841605D01*
X132733622Y-117899516D01*
X132843104Y-117903938D01*
X132916089Y-117799167D01*
X133064074Y-117567523D01*
X133256150Y-117257465D01*
X133271844Y-117231791D01*
X133565240Y-116808516D01*
X133945630Y-116341180D01*
X134372972Y-115871417D01*
X134807225Y-115440863D01*
X135208346Y-115091153D01*
X135536293Y-114863921D01*
X135562392Y-114850113D01*
X135994846Y-114670416D01*
X136541906Y-114500257D01*
X137124133Y-114359396D01*
X137662090Y-114267590D01*
X138004245Y-114242741D01*
X138799556Y-114340543D01*
G37*
G36*
X129076746Y-72629391D02*
G01*
X129606529Y-72834688D01*
X130232668Y-73160932D01*
X130932014Y-73595097D01*
X131681417Y-74124158D01*
X132286007Y-74594485D01*
X132560100Y-74832170D01*
X132946392Y-75188940D01*
X133418719Y-75638699D01*
X133950920Y-76155349D01*
X134516830Y-76712791D01*
X135090286Y-77284929D01*
X135645126Y-77845665D01*
X136155185Y-78368900D01*
X136594301Y-78828538D01*
X136936310Y-79198481D01*
X137150039Y-79446323D01*
X137456803Y-79830954D01*
X138627797Y-79364501D01*
X140486279Y-78701770D01*
X142294216Y-78219542D01*
X144086026Y-77911933D01*
X145896126Y-77773059D01*
X147758935Y-77797037D01*
X147787499Y-77798608D01*
X149594966Y-77996783D01*
X151425586Y-78387318D01*
X153257602Y-78962721D01*
X155069255Y-79715497D01*
X156838788Y-80638153D01*
X157875806Y-81273132D01*
X158276438Y-81530200D01*
X158620142Y-81745676D01*
X158866957Y-81894827D01*
X158971323Y-81951215D01*
X159101589Y-81912373D01*
X159344376Y-81768271D01*
X159655975Y-81546124D01*
X159790678Y-81441040D01*
X160634107Y-80806742D01*
X161614650Y-80136715D01*
X162676955Y-79465342D01*
X163765668Y-78827004D01*
X164825436Y-78256083D01*
X165294476Y-78022418D01*
X166055755Y-77697455D01*
X166704136Y-77518398D01*
X167265486Y-77480471D01*
X167741667Y-77570801D01*
X168138543Y-77784325D01*
X168547424Y-78144585D01*
X168920606Y-78602376D01*
X169190370Y-79065209D01*
X169350471Y-79472110D01*
X169526736Y-80034234D01*
X169707853Y-80703815D01*
X169882509Y-81433089D01*
X170039389Y-82174290D01*
X170167182Y-82879653D01*
X170254575Y-83501414D01*
X170265524Y-83604601D01*
X170342320Y-84690649D01*
X170375979Y-85923473D01*
X170368144Y-87249966D01*
X170320461Y-88617022D01*
X170234572Y-89971532D01*
X170112123Y-91260389D01*
X170001916Y-92120161D01*
X169942252Y-92483613D01*
X169844496Y-93020681D01*
X169714121Y-93704826D01*
X169556597Y-94509511D01*
X169377398Y-95408198D01*
X169181994Y-96374349D01*
X168975858Y-97381427D01*
X168764461Y-98402894D01*
X168553276Y-99412212D01*
X168347773Y-100382844D01*
X168153425Y-101288252D01*
X167975703Y-102101898D01*
X167820080Y-102797245D01*
X167692027Y-103347754D01*
X167657836Y-103488709D01*
X167524130Y-104041588D01*
X167438583Y-104428254D01*
X167397454Y-104680651D01*
X167397004Y-104830722D01*
X167433493Y-104910409D01*
X167487320Y-104945190D01*
X167633157Y-104988800D01*
X167947724Y-105070055D01*
X168399968Y-105181370D01*
X168958837Y-105315159D01*
X169593278Y-105463836D01*
X169910080Y-105537009D01*
X170725359Y-105730522D01*
X171382147Y-105899353D01*
X171869232Y-106040299D01*
X172175403Y-106150154D01*
X172284295Y-106215685D01*
X172359805Y-106449794D01*
X172251138Y-106647294D01*
X172143153Y-106708480D01*
X172001541Y-106704151D01*
X171690748Y-106658891D01*
X171241074Y-106578312D01*
X170682821Y-106468020D01*
X170046289Y-106333627D01*
X169670974Y-106250835D01*
X168997232Y-106103594D01*
X168378656Y-105975267D01*
X167847123Y-105871918D01*
X167434510Y-105799612D01*
X167172695Y-105764413D01*
X167106089Y-105762863D01*
X166984701Y-105801580D01*
X166871607Y-105907441D01*
X166746390Y-106112980D01*
X166588631Y-106450730D01*
X166413736Y-106865975D01*
X166244297Y-107297828D01*
X166118498Y-107658529D01*
X166049355Y-107907778D01*
X166046298Y-108003480D01*
X166154327Y-108078734D01*
X166403293Y-108243639D01*
X166761562Y-108477495D01*
X167197498Y-108759599D01*
X167452016Y-108923394D01*
X168262650Y-109446820D01*
X168915070Y-109875480D01*
X169425534Y-110221932D01*
X169810301Y-110498733D01*
X170085629Y-110718439D01*
X170267776Y-110893610D01*
X170373000Y-111036801D01*
X170417561Y-111160570D01*
X170422177Y-111217425D01*
X170386423Y-111441626D01*
X170306678Y-111550058D01*
X170190754Y-111507136D01*
X169931775Y-111365356D01*
X169556270Y-111140744D01*
X169090771Y-110849329D01*
X168561809Y-110507140D01*
X168360710Y-110374445D01*
X167779876Y-109992069D01*
X167220537Y-109629105D01*
X166717995Y-109308064D01*
X166307549Y-109051454D01*
X166024503Y-108881786D01*
X165984719Y-108859400D01*
X165439198Y-108558467D01*
X165139760Y-108913066D01*
X164959697Y-109140380D01*
X164852943Y-109302350D01*
X164840322Y-109337248D01*
X164901361Y-109436382D01*
X165070315Y-109666661D01*
X165325939Y-110000243D01*
X165646986Y-110409289D01*
X165909865Y-110738812D01*
X166302047Y-111229821D01*
X166579496Y-111587524D01*
X166757190Y-111837154D01*
X166850105Y-112003941D01*
X166873220Y-112113118D01*
X166841511Y-112189917D01*
X166797970Y-112234993D01*
X166677681Y-112335185D01*
X166565454Y-112389819D01*
X166442943Y-112384107D01*
X166291802Y-112303263D01*
X166093685Y-112132499D01*
X165830246Y-111857029D01*
X165483140Y-111462066D01*
X165034021Y-110932822D01*
X164722840Y-110562416D01*
X164349309Y-110117219D01*
X163391388Y-110886717D01*
X162380361Y-111676136D01*
X161482491Y-112326264D01*
X160674990Y-112851033D01*
X159935072Y-113264378D01*
X159239948Y-113580232D01*
X158643951Y-113789590D01*
X158319966Y-113889226D01*
X158086375Y-113963529D01*
X157999754Y-113994004D01*
X158041801Y-114080736D01*
X158177863Y-114305424D01*
X158387822Y-114635931D01*
X158651561Y-115040117D01*
X158708296Y-115125917D01*
X159489463Y-116313768D01*
X160161530Y-117358660D01*
X160735941Y-118283246D01*
X161224142Y-119110179D01*
X161637578Y-119862112D01*
X161987694Y-120561700D01*
X162285934Y-121231595D01*
X162543743Y-121894451D01*
X162772567Y-122572922D01*
X162983850Y-123289660D01*
X163151923Y-123921370D01*
X163592987Y-125979778D01*
X163843786Y-127976349D01*
X163904711Y-129924138D01*
X163776154Y-131836201D01*
X163458506Y-133725592D01*
X163447465Y-133775722D01*
X163171700Y-134920303D01*
X162876779Y-135960735D01*
X162575485Y-136852957D01*
X162491820Y-137069968D01*
X162381784Y-137374591D01*
X162323035Y-137595557D01*
X162323430Y-137672086D01*
X162432500Y-137654401D01*
X162679456Y-137563189D01*
X163018711Y-137416006D01*
X163163053Y-137348717D01*
X164320486Y-136694651D01*
X165324446Y-135910071D01*
X166170133Y-135005373D01*
X166852747Y-133990952D01*
X167367488Y-132877203D01*
X167709557Y-131674521D01*
X167874152Y-130393302D01*
X167856475Y-129043940D01*
X167651725Y-127636830D01*
X167650411Y-127630561D01*
X167552822Y-127227736D01*
X167409621Y-126712459D01*
X167243813Y-126165287D01*
X167145427Y-125862297D01*
X166973730Y-125297672D01*
X166851682Y-124790451D01*
X166792227Y-124397160D01*
X166788539Y-124303912D01*
X166884242Y-123674924D01*
X167148126Y-123131324D01*
X167554613Y-122692047D01*
X168078125Y-122376026D01*
X168693085Y-122202194D01*
X169373915Y-122189486D01*
X169600557Y-122222364D01*
X170466492Y-122483303D01*
X171296064Y-122928304D01*
X172069111Y-123537236D01*
X172765474Y-124289964D01*
X173364993Y-125166355D01*
X173847506Y-126146274D01*
X174031642Y-126647528D01*
X174341184Y-127719608D01*
X174551523Y-128774214D01*
X174672738Y-129879152D01*
X174714914Y-131102224D01*
X174715164Y-131244354D01*
X174663193Y-132626873D01*
X174500916Y-133892823D01*
X174214228Y-135103591D01*
X173789021Y-136320565D01*
X173291304Y-137440725D01*
X172509550Y-138850019D01*
X171593582Y-140120550D01*
X170636165Y-141158439D01*
X169624988Y-142033727D01*
X168550200Y-142769806D01*
X167379690Y-143383530D01*
X166081348Y-143891755D01*
X164635483Y-144308278D01*
X164387643Y-144356900D01*
X164053176Y-144399521D01*
X163612866Y-144437269D01*
X163047498Y-144471271D01*
X162337856Y-144502655D01*
X161464726Y-144532547D01*
X160408891Y-144562074D01*
X160231451Y-144566595D01*
X159211943Y-144593847D01*
X158114139Y-144625926D01*
X156990408Y-144661120D01*
X155893115Y-144697713D01*
X154874628Y-144733992D01*
X153987312Y-144768242D01*
X153676612Y-144781171D01*
X153059549Y-144803068D01*
X152281081Y-144823441D01*
X151361507Y-144842210D01*
X150321132Y-144859295D01*
X149180255Y-144874617D01*
X147959179Y-144888095D01*
X146678206Y-144899649D01*
X145357636Y-144909201D01*
X144017773Y-144916670D01*
X142678917Y-144921976D01*
X141361371Y-144925039D01*
X140085436Y-144925780D01*
X138871413Y-144924119D01*
X137739605Y-144919976D01*
X136710313Y-144913271D01*
X135803838Y-144903924D01*
X135040484Y-144891856D01*
X134440550Y-144876987D01*
X134024339Y-144859236D01*
X134012096Y-144858484D01*
X132450913Y-144728045D01*
X131059612Y-144542961D01*
X129845481Y-144304659D01*
X128815809Y-144014563D01*
X127991700Y-143680897D01*
X126958999Y-143079161D01*
X125940641Y-142304304D01*
X124965953Y-141387493D01*
X124064264Y-140359897D01*
X123264901Y-139252685D01*
X122597191Y-138097023D01*
X122446598Y-137787820D01*
X121969359Y-136641316D01*
X121599918Y-135459673D01*
X121331872Y-134209041D01*
X121158817Y-132855573D01*
X121074350Y-131365420D01*
X121068093Y-130860451D01*
X121985602Y-130860451D01*
X122048278Y-132414622D01*
X122228342Y-133897273D01*
X122525799Y-135275482D01*
X122905972Y-136430027D01*
X123585840Y-137895727D01*
X124411674Y-139236172D01*
X125373139Y-140436874D01*
X126459897Y-141483342D01*
X126584908Y-141586996D01*
X127300500Y-142140524D01*
X127959297Y-142572381D01*
X128611091Y-142903169D01*
X129305674Y-143153485D01*
X130092839Y-143343931D01*
X131022378Y-143495105D01*
X131277955Y-143528561D01*
X132011179Y-143615759D01*
X132807797Y-143701304D01*
X133641229Y-143783202D01*
X134484898Y-143859459D01*
X135312223Y-143928082D01*
X136096626Y-143987077D01*
X136811528Y-144034450D01*
X137430349Y-144068207D01*
X137926511Y-144086355D01*
X138273436Y-144086901D01*
X138444542Y-144067849D01*
X138447914Y-144066390D01*
X138421869Y-143980405D01*
X138279253Y-143786700D01*
X138048345Y-143522395D01*
X137969820Y-143438800D01*
X137094359Y-142378969D01*
X136326365Y-141150530D01*
X135669603Y-139761525D01*
X135127840Y-138219996D01*
X134704842Y-136533985D01*
X134680935Y-136416532D01*
X134520874Y-135589291D01*
X134412135Y-134941252D01*
X134355946Y-134452996D01*
X134353534Y-134105106D01*
X134406128Y-133878164D01*
X134514954Y-133752752D01*
X134681241Y-133709453D01*
X134851418Y-133720161D01*
X134942068Y-133745987D01*
X135016865Y-133814054D01*
X135085649Y-133953567D01*
X135158260Y-134193727D01*
X135244537Y-134563738D01*
X135354321Y-135092804D01*
X135413683Y-135388895D01*
X135807378Y-137091580D01*
X136272597Y-138613289D01*
X136808164Y-139951873D01*
X137412902Y-141105186D01*
X138085632Y-142071079D01*
X138825178Y-142847407D01*
X139630360Y-143432021D01*
X139906019Y-143580403D01*
X140551705Y-143818790D01*
X141227548Y-143926645D01*
X141888812Y-143907222D01*
X142400474Y-143785291D01*
X144356451Y-143785291D01*
X144448090Y-143819020D01*
X144680033Y-143839296D01*
X144819420Y-143841935D01*
X145282388Y-143841935D01*
X145067351Y-143420427D01*
X144852314Y-142998920D01*
X144604383Y-143363784D01*
X144452218Y-143599717D01*
X144364732Y-143758608D01*
X144356451Y-143785291D01*
X142400474Y-143785291D01*
X142490762Y-143763775D01*
X142988661Y-143499561D01*
X143165802Y-143343226D01*
X143490758Y-142881310D01*
X143755556Y-142254565D01*
X143954612Y-141495596D01*
X144082340Y-140637008D01*
X144133155Y-139711409D01*
X144101471Y-138751405D01*
X144045343Y-138208870D01*
X144009213Y-137900676D01*
X143958416Y-137424265D01*
X143896530Y-136815445D01*
X143827133Y-136110024D01*
X143753805Y-135343808D01*
X143681993Y-134572983D01*
X143608194Y-133748541D01*
X143550037Y-133035493D01*
X143506046Y-132392324D01*
X143474744Y-131777516D01*
X143454655Y-131149553D01*
X143444302Y-130466917D01*
X143442210Y-129688093D01*
X143446901Y-128771563D01*
X143452525Y-128120564D01*
X143463056Y-127104317D01*
X143475352Y-126274122D01*
X143492150Y-125611197D01*
X143516186Y-125096758D01*
X143550195Y-124712020D01*
X143596913Y-124438202D01*
X143659078Y-124256518D01*
X143739426Y-124148186D01*
X143840691Y-124094422D01*
X143965612Y-124076443D01*
X144041839Y-124074999D01*
X144288372Y-124129098D01*
X144396703Y-124237005D01*
X144410020Y-124371417D01*
X144422360Y-124688395D01*
X144433412Y-125165668D01*
X144442866Y-125780964D01*
X144450409Y-126512011D01*
X144455732Y-127336538D01*
X144458522Y-128232273D01*
X144458870Y-128687160D01*
X144459163Y-129738436D01*
X144461212Y-130619871D01*
X144466772Y-131366460D01*
X144477599Y-132013203D01*
X144495448Y-132595094D01*
X144522075Y-133147132D01*
X144559236Y-133704314D01*
X144608686Y-134301636D01*
X144672180Y-134974097D01*
X144751475Y-135756691D01*
X144848325Y-136684418D01*
X144870742Y-136897937D01*
X144999077Y-138091375D01*
X145115170Y-139100563D01*
X145222690Y-139945472D01*
X145325309Y-140646071D01*
X145426699Y-141222332D01*
X145530532Y-141694224D01*
X145640477Y-142081717D01*
X145760208Y-142404781D01*
X145893395Y-142683387D01*
X145954382Y-142792208D01*
X146273288Y-143260353D01*
X146624302Y-143591583D01*
X147076990Y-143850372D01*
X147114868Y-143867704D01*
X147692731Y-144021729D01*
X148340992Y-144011332D01*
X149025336Y-143848146D01*
X149711448Y-143543801D01*
X150365015Y-143109928D01*
X150940149Y-142571072D01*
X151264743Y-142147497D01*
X151551038Y-141633116D01*
X151803137Y-141011806D01*
X152025147Y-140267442D01*
X152221171Y-139383899D01*
X152395314Y-138345053D01*
X152551681Y-137134779D01*
X152694378Y-135736954D01*
X152702448Y-135648386D01*
X152818043Y-134394777D01*
X152932409Y-133197735D01*
X153043763Y-132073384D01*
X153150324Y-131037843D01*
X153250309Y-130107235D01*
X153341936Y-129297680D01*
X153423423Y-128625301D01*
X153492988Y-128106217D01*
X153548849Y-127756550D01*
X153589223Y-127592422D01*
X153593849Y-127584783D01*
X153803705Y-127468547D01*
X154060460Y-127481405D01*
X154262899Y-127613840D01*
X154285860Y-127649832D01*
X154333123Y-127875103D01*
X154334775Y-128291803D01*
X154290830Y-128904067D01*
X154290793Y-128904469D01*
X154258290Y-129261509D01*
X154211532Y-129790041D01*
X154153340Y-130457430D01*
X154086536Y-131231044D01*
X154013941Y-132078249D01*
X153938376Y-132966410D01*
X153884174Y-133607480D01*
X153730618Y-135302591D01*
X153572256Y-136799441D01*
X153408148Y-138104570D01*
X153237356Y-139224521D01*
X153058939Y-140165834D01*
X152871957Y-140935049D01*
X152793621Y-141198976D01*
X152634245Y-141616860D01*
X152414076Y-142080569D01*
X152160496Y-142543382D01*
X151900887Y-142958577D01*
X151662634Y-143279436D01*
X151473117Y-143459236D01*
X151466726Y-143462952D01*
X151327762Y-143560254D01*
X151312171Y-143633483D01*
X151434430Y-143684731D01*
X151709015Y-143716091D01*
X152150401Y-143729657D01*
X152773063Y-143727521D01*
X153241330Y-143719540D01*
X153932283Y-143703412D01*
X154458116Y-143684056D01*
X154858543Y-143656879D01*
X155173277Y-143617290D01*
X155442033Y-143560694D01*
X155704524Y-143482501D01*
X155910049Y-143410929D01*
X155911328Y-143410334D01*
X158168504Y-143410334D01*
X158508707Y-143482606D01*
X159014527Y-143536441D01*
X159647588Y-143571968D01*
X160369512Y-143589316D01*
X161141921Y-143588617D01*
X161926437Y-143569999D01*
X162684684Y-143533593D01*
X163378283Y-143479527D01*
X163968857Y-143407932D01*
X164078074Y-143390363D01*
X165524935Y-143060761D01*
X166843280Y-142579938D01*
X168053812Y-141937001D01*
X169177236Y-141121059D01*
X170176952Y-140181744D01*
X171243992Y-138927381D01*
X172118355Y-137604812D01*
X172802215Y-136209023D01*
X173297744Y-134734995D01*
X173607116Y-133177712D01*
X173715280Y-132012499D01*
X173722269Y-130669423D01*
X173609089Y-129349193D01*
X173382968Y-128091668D01*
X173051131Y-126936709D01*
X172620806Y-125924175D01*
X172606274Y-125896076D01*
X172182875Y-125200053D01*
X171676712Y-124558510D01*
X171124313Y-124008596D01*
X170562204Y-123587455D01*
X170114919Y-123362493D01*
X169490659Y-123196393D01*
X168931619Y-123176143D01*
X168461117Y-123292174D01*
X168102472Y-123534920D01*
X167879004Y-123894813D01*
X167812706Y-124307059D01*
X167848017Y-124590674D01*
X167941165Y-125000062D01*
X168076032Y-125469973D01*
X168169638Y-125752020D01*
X168466582Y-126690612D01*
X168667299Y-127566624D01*
X168784824Y-128458920D01*
X168832196Y-129446367D01*
X168834677Y-129774905D01*
X168766100Y-131163010D01*
X168555103Y-132418441D01*
X168193786Y-133563000D01*
X167674250Y-134618491D01*
X166988594Y-135606715D01*
X166528744Y-136139275D01*
X165875576Y-136787468D01*
X165175978Y-137360434D01*
X164390370Y-137884729D01*
X163479168Y-138386910D01*
X162463772Y-138866517D01*
X162161115Y-139002975D01*
X161928760Y-139123597D01*
X161737247Y-139258652D01*
X161557120Y-139438410D01*
X161358918Y-139693140D01*
X161113184Y-140053110D01*
X160790458Y-140548591D01*
X160718431Y-140659893D01*
X160253508Y-141299755D01*
X159688959Y-141956075D01*
X159089218Y-142558574D01*
X158583566Y-142988397D01*
X158335146Y-143192853D01*
X158186536Y-143345405D01*
X158168504Y-143410334D01*
X155911328Y-143410334D01*
X156925937Y-142938194D01*
X157887329Y-142276215D01*
X158788021Y-141434812D01*
X159621804Y-140423808D01*
X160382472Y-139253024D01*
X161063818Y-137932281D01*
X161659635Y-136471399D01*
X162163716Y-134880202D01*
X162569856Y-133168509D01*
X162651582Y-132743497D01*
X162736658Y-132138752D01*
X162802776Y-131383233D01*
X162848524Y-130530253D01*
X162872491Y-129633124D01*
X162873269Y-128745158D01*
X162849446Y-127919667D01*
X162799613Y-127209964D01*
X162798306Y-127196971D01*
X162602295Y-125773404D01*
X162301248Y-124382312D01*
X161885844Y-123001398D01*
X161346762Y-121608362D01*
X160674683Y-120180906D01*
X159860285Y-118696730D01*
X158894247Y-117133535D01*
X158089976Y-115932661D01*
X157703629Y-115369950D01*
X157411536Y-114953561D01*
X157186518Y-114664851D01*
X157001396Y-114485180D01*
X156828993Y-114395905D01*
X156642128Y-114378383D01*
X156413625Y-114413973D01*
X156116304Y-114484032D01*
X156013186Y-114508168D01*
X155688236Y-114575238D01*
X155354618Y-114625136D01*
X154976073Y-114660011D01*
X154516343Y-114682010D01*
X153939173Y-114693279D01*
X153208303Y-114695967D01*
X152857257Y-114695093D01*
X150429145Y-114625317D01*
X147968622Y-114438263D01*
X145539136Y-114140775D01*
X143204136Y-113739699D01*
X142359274Y-113562540D01*
X140811189Y-113209815D01*
X139429597Y-112870952D01*
X138177619Y-112535325D01*
X137018377Y-112192313D01*
X135914994Y-111831292D01*
X134830591Y-111441639D01*
X134319354Y-111246507D01*
X133762434Y-111033238D01*
X133249131Y-110842218D01*
X132819854Y-110688070D01*
X132515012Y-110585416D01*
X132404581Y-110553657D01*
X132234526Y-110529025D01*
X132066237Y-110546293D01*
X131885710Y-110619327D01*
X131678942Y-110761991D01*
X131431927Y-110988148D01*
X131130661Y-111311664D01*
X130761141Y-111746401D01*
X130309362Y-112306226D01*
X129761320Y-113005001D01*
X129214586Y-113711754D01*
X128121317Y-115152341D01*
X127160282Y-116469152D01*
X126319120Y-117683502D01*
X125585474Y-118816706D01*
X124946982Y-119890080D01*
X124391286Y-120924939D01*
X123906025Y-121942599D01*
X123478840Y-122964374D01*
X123097372Y-124011581D01*
X122908617Y-124587000D01*
X122501819Y-126098035D01*
X122212380Y-127669236D01*
X122040305Y-129267682D01*
X121985602Y-130860451D01*
X121068093Y-130860451D01*
X121063332Y-130476209D01*
X121085123Y-129228202D01*
X121152373Y-128124598D01*
X121272431Y-127108536D01*
X121452641Y-126123158D01*
X121700350Y-125111603D01*
X121804392Y-124740725D01*
X122293806Y-123272434D01*
X122934608Y-121717078D01*
X123710364Y-120105044D01*
X124604640Y-118466720D01*
X125601003Y-116832491D01*
X126683018Y-115232747D01*
X127647915Y-113935483D01*
X127910915Y-113602169D01*
X128234447Y-113199563D01*
X128592593Y-112759062D01*
X128959433Y-112312065D01*
X129309050Y-111889970D01*
X129615523Y-111524175D01*
X129852935Y-111246079D01*
X129995367Y-111087080D01*
X130015193Y-111067741D01*
X130105708Y-110969183D01*
X130289518Y-110757533D01*
X130528457Y-110476786D01*
X130551339Y-110449660D01*
X131029159Y-109882789D01*
X130549055Y-109631398D01*
X129548377Y-109042799D01*
X128520434Y-108321097D01*
X127515437Y-107508213D01*
X126583594Y-106646070D01*
X125775116Y-105776592D01*
X125448493Y-105372713D01*
X125182784Y-105045620D01*
X124952699Y-104798427D01*
X124791271Y-104664898D01*
X124743610Y-104652181D01*
X124617180Y-104723233D01*
X124356671Y-104884771D01*
X123998507Y-105113758D01*
X123579114Y-105387158D01*
X123522264Y-105424584D01*
X122977475Y-105773309D01*
X122576045Y-106002681D01*
X122299319Y-106118689D01*
X122128643Y-106127324D01*
X122045363Y-106034573D01*
X122029032Y-105904038D01*
X122063073Y-105774232D01*
X122180552Y-105615524D01*
X122404505Y-105405818D01*
X122757964Y-105123015D01*
X123148971Y-104829653D01*
X123563613Y-104520283D01*
X123916919Y-104250531D01*
X124176846Y-104045322D01*
X124311352Y-103929580D01*
X124321661Y-103917489D01*
X124310629Y-103800196D01*
X124252364Y-103538170D01*
X124161095Y-103182076D01*
X124051052Y-102782580D01*
X123936465Y-102390350D01*
X123831562Y-102056052D01*
X123750573Y-101830351D01*
X123717342Y-101765714D01*
X123615581Y-101786303D01*
X123346700Y-101862063D01*
X122938311Y-101984620D01*
X122418026Y-102145600D01*
X121813459Y-102336629D01*
X121437712Y-102457045D01*
X120791381Y-102663741D01*
X120208167Y-102847464D01*
X119716982Y-102999333D01*
X119346739Y-103110467D01*
X119126351Y-103171983D01*
X119079369Y-103181451D01*
X118959610Y-103094633D01*
X118891202Y-102893813D01*
X118901696Y-102668436D01*
X118911901Y-102637722D01*
X119035412Y-102545394D01*
X119351409Y-102402454D01*
X119854439Y-102211001D01*
X120539048Y-101973136D01*
X121218659Y-101749271D01*
X123462903Y-101023728D01*
X123462903Y-99651427D01*
X123460287Y-99092176D01*
X123449685Y-98704926D01*
X123449299Y-98700709D01*
X124329873Y-98700709D01*
X124348198Y-98966552D01*
X124383767Y-99343265D01*
X124409839Y-99585107D01*
X124517811Y-100546425D01*
X125875077Y-100494634D01*
X126521779Y-100476465D01*
X126981865Y-100481394D01*
X127272648Y-100513197D01*
X127411436Y-100575652D01*
X127415542Y-100672536D01*
X127303628Y-100806360D01*
X127115168Y-100915211D01*
X126778119Y-101017821D01*
X126270682Y-101119980D01*
X125895362Y-101180453D01*
X125311132Y-101278617D01*
X124923427Y-101367314D01*
X124724260Y-101448631D01*
X124691935Y-101495034D01*
X124726485Y-101656571D01*
X124816623Y-101935662D01*
X124942079Y-102280556D01*
X125082583Y-102639497D01*
X125217866Y-102960732D01*
X125327658Y-103192508D01*
X125391690Y-103283069D01*
X125392231Y-103283088D01*
X125517800Y-103254755D01*
X125781685Y-103181239D01*
X126125806Y-103078742D01*
X126676939Y-102923432D01*
X127268709Y-102778902D01*
X127862674Y-102652071D01*
X128420392Y-102549861D01*
X128903422Y-102479192D01*
X129273322Y-102446985D01*
X129491650Y-102460160D01*
X129513691Y-102468822D01*
X129642278Y-102614145D01*
X129602741Y-102785815D01*
X129420202Y-102942250D01*
X129173633Y-103031697D01*
X128959423Y-103085411D01*
X128612595Y-103180834D01*
X128172253Y-103306359D01*
X127677500Y-103450377D01*
X127167441Y-103601282D01*
X126681180Y-103747464D01*
X126257820Y-103877317D01*
X125936466Y-103979233D01*
X125756221Y-104041604D01*
X125731851Y-104053363D01*
X125764274Y-104155570D01*
X125907738Y-104375749D01*
X126135215Y-104680560D01*
X126419674Y-105036664D01*
X126734086Y-105410720D01*
X127051420Y-105769390D01*
X127344647Y-106079334D01*
X127486350Y-106217418D01*
X128866130Y-107374181D01*
X130408291Y-108416857D01*
X132116145Y-109347316D01*
X133993006Y-110167429D01*
X135343548Y-110655051D01*
X136009061Y-110868124D01*
X136823349Y-111114712D01*
X137735954Y-111380730D01*
X138696419Y-111652093D01*
X139654287Y-111914714D01*
X140559101Y-112154509D01*
X141360404Y-112357393D01*
X141898386Y-112484875D01*
X142966753Y-112706097D01*
X144236987Y-112932121D01*
X145706186Y-113162486D01*
X147371446Y-113396730D01*
X148760483Y-113576328D01*
X149582984Y-113673576D01*
X150276993Y-113740070D01*
X150915913Y-113779667D01*
X151573146Y-113796227D01*
X152322093Y-113793607D01*
X152754838Y-113786292D01*
X153577237Y-113760662D01*
X154357760Y-113718930D01*
X155047025Y-113664518D01*
X155595651Y-113600846D01*
X155724999Y-113580525D01*
X156524412Y-113410649D01*
X157395654Y-113169356D01*
X158261586Y-112881389D01*
X159045068Y-112571489D01*
X159429660Y-112392276D01*
X160010984Y-112079644D01*
X160615232Y-111717951D01*
X161216323Y-111326733D01*
X161788176Y-110925526D01*
X162304711Y-110533866D01*
X162739847Y-110171290D01*
X163067503Y-109857334D01*
X163261599Y-109611534D01*
X163304032Y-109490111D01*
X163299483Y-109435037D01*
X163275858Y-109365807D01*
X163218187Y-109260152D01*
X163111498Y-109095804D01*
X162940821Y-108850493D01*
X162691187Y-108501951D01*
X162347626Y-108027908D01*
X161998185Y-107547602D01*
X161692586Y-107119804D01*
X161436213Y-106745659D01*
X161251105Y-106458510D01*
X161159299Y-106291696D01*
X161153225Y-106269260D01*
X161213756Y-106159027D01*
X161383595Y-106194585D01*
X161645117Y-106360958D01*
X161980693Y-106643171D01*
X162372695Y-107026246D01*
X162803497Y-107495209D01*
X163255471Y-108035083D01*
X163305267Y-108097580D01*
X163538552Y-108391117D01*
X163724642Y-108624003D01*
X163824053Y-108746828D01*
X163825034Y-108747998D01*
X163919039Y-108720846D01*
X164091118Y-108545457D01*
X164321132Y-108253354D01*
X164588944Y-107876060D01*
X164874417Y-107445097D01*
X165157413Y-106991989D01*
X165417795Y-106548257D01*
X165635425Y-106145426D01*
X165790166Y-105815017D01*
X165861880Y-105588554D01*
X165864516Y-105555435D01*
X165769596Y-105505918D01*
X165506151Y-105423094D01*
X165106151Y-105315614D01*
X164601566Y-105192128D01*
X164097782Y-105077393D01*
X163507303Y-104944304D01*
X162973482Y-104818499D01*
X162534040Y-104709294D01*
X162226699Y-104626010D01*
X162100604Y-104584000D01*
X161925518Y-104430856D01*
X161874866Y-104234088D01*
X161960409Y-104071788D01*
X162018634Y-104039822D01*
X162161106Y-104040632D01*
X162471435Y-104076243D01*
X162916531Y-104141728D01*
X163463302Y-104232163D01*
X164078657Y-104342621D01*
X164178850Y-104361369D01*
X164815613Y-104476109D01*
X165373376Y-104566837D01*
X165822418Y-104629450D01*
X166133018Y-104659846D01*
X166275456Y-104653921D01*
X166279187Y-104651295D01*
X166328774Y-104525536D01*
X166415729Y-104221398D01*
X166535026Y-103760908D01*
X166681640Y-103166091D01*
X166850546Y-102458974D01*
X167036718Y-101661581D01*
X167235133Y-100795940D01*
X167440765Y-99884075D01*
X167648588Y-98948013D01*
X167853577Y-98009778D01*
X168050708Y-97091398D01*
X168234955Y-96214898D01*
X168401293Y-95402304D01*
X168483856Y-94987903D01*
X168705559Y-93776191D01*
X168908305Y-92501857D01*
X169084131Y-91224461D01*
X169225073Y-90003567D01*
X169323171Y-88898736D01*
X169347010Y-88531342D01*
X169373681Y-87832782D01*
X169382685Y-87027666D01*
X169375485Y-86160254D01*
X169353541Y-85274806D01*
X169318317Y-84415585D01*
X169271273Y-83626850D01*
X169213873Y-82952863D01*
X169147577Y-82437885D01*
X169145294Y-82424344D01*
X169013924Y-81784147D01*
X168836576Y-81106618D01*
X168628478Y-80435876D01*
X168404857Y-79816037D01*
X168180940Y-79291219D01*
X167971956Y-78905540D01*
X167893215Y-78796769D01*
X167587391Y-78547371D01*
X167215836Y-78408415D01*
X167082845Y-78395967D01*
X166781021Y-78454994D01*
X166338159Y-78622943D01*
X165777304Y-78886120D01*
X165121502Y-79230829D01*
X164393799Y-79643374D01*
X163617239Y-80110059D01*
X162814870Y-80617190D01*
X162009736Y-81151069D01*
X161224883Y-81698003D01*
X160483357Y-82244294D01*
X160077822Y-82558926D01*
X159721776Y-82831791D01*
X159416634Y-83048311D01*
X159202576Y-83180924D01*
X159129966Y-83209112D01*
X159006175Y-83154162D01*
X158744739Y-83001671D01*
X158376378Y-82770769D01*
X157931812Y-82480583D01*
X157571620Y-82238779D01*
X156037442Y-81277256D01*
X154518631Y-80493801D01*
X152972322Y-79870094D01*
X151355651Y-79387817D01*
X150391483Y-79170239D01*
X148724474Y-78907695D01*
X147045384Y-78785114D01*
X145380070Y-78799058D01*
X143754390Y-78946090D01*
X142194201Y-79222772D01*
X140725360Y-79625665D01*
X139373725Y-80151332D01*
X138166228Y-80795665D01*
X137813800Y-81007876D01*
X137522003Y-81169881D01*
X137337811Y-81256119D01*
X137306048Y-81263709D01*
X137211289Y-81185891D01*
X137016686Y-80970148D01*
X136744465Y-80643049D01*
X136416853Y-80231160D01*
X136124090Y-79850911D01*
X135070632Y-78572935D01*
X133866945Y-77303346D01*
X132563797Y-76090024D01*
X131211957Y-74980847D01*
X130141404Y-74208668D01*
X129611949Y-73870719D01*
X129203356Y-73658321D01*
X128885550Y-73558544D01*
X128628937Y-73558365D01*
X128303679Y-73718510D01*
X127971864Y-74064197D01*
X127640627Y-74576584D01*
X127317105Y-75236833D01*
X127008435Y-76026103D01*
X126721753Y-76925556D01*
X126464194Y-77916351D01*
X126242897Y-78979648D01*
X126064997Y-80096608D01*
X126020552Y-80444354D01*
X125977314Y-80900770D01*
X125939764Y-81489215D01*
X125907930Y-82186599D01*
X125881840Y-82969835D01*
X125861525Y-83815833D01*
X125847011Y-84701506D01*
X125838328Y-85603765D01*
X125835504Y-86499521D01*
X125838568Y-87365686D01*
X125847549Y-88179171D01*
X125862474Y-88916888D01*
X125883373Y-89555748D01*
X125910274Y-90072663D01*
X125943205Y-90444544D01*
X125982196Y-90648302D01*
X126007885Y-90680329D01*
X126096899Y-90603366D01*
X126282941Y-90400863D01*
X126535169Y-90107306D01*
X126717891Y-89886579D01*
X127069618Y-89459140D01*
X127444760Y-89008499D01*
X127778131Y-88612820D01*
X127869076Y-88506219D01*
X128126747Y-88181080D01*
X128330756Y-87878507D01*
X128440300Y-87659556D01*
X128444256Y-87645545D01*
X128451733Y-87440374D01*
X128421029Y-87083848D01*
X128357700Y-86624729D01*
X128272490Y-86138519D01*
X128131266Y-85248041D01*
X128037099Y-84307416D01*
X127987572Y-83338814D01*
X127980267Y-82364404D01*
X128012767Y-81406355D01*
X128082655Y-80486838D01*
X128187514Y-79628021D01*
X128324927Y-78852074D01*
X128492476Y-78181168D01*
X128687746Y-77637470D01*
X128908317Y-77243152D01*
X129151774Y-77020382D01*
X129270857Y-76981608D01*
X129595851Y-77027774D01*
X130000890Y-77233960D01*
X130467323Y-77580693D01*
X130976501Y-78048497D01*
X131509773Y-78617898D01*
X132048490Y-79269424D01*
X132574000Y-79983599D01*
X133067654Y-80740949D01*
X133371772Y-81263696D01*
X133677209Y-81858545D01*
X133857285Y-82310067D01*
X133909677Y-82587083D01*
X133852167Y-82900132D01*
X133707202Y-83160477D01*
X133516133Y-83302412D01*
X133453423Y-83312096D01*
X133360371Y-83225592D01*
X133209219Y-82993837D01*
X133025720Y-82658467D01*
X132931595Y-82468496D01*
X132699080Y-82020099D01*
X132394297Y-81482838D01*
X132062890Y-80935347D01*
X131844155Y-80595128D01*
X131529787Y-80146570D01*
X131173601Y-79679584D01*
X130801417Y-79223508D01*
X130439051Y-78807680D01*
X130112323Y-78461438D01*
X129847050Y-78214120D01*
X129669051Y-78095065D01*
X129638442Y-78088709D01*
X129557556Y-78136461D01*
X129474075Y-78294678D01*
X129380943Y-78585797D01*
X129271101Y-79032260D01*
X129137490Y-79656504D01*
X129122988Y-79727419D01*
X129045755Y-80243350D01*
X128988146Y-80907565D01*
X128950112Y-81676009D01*
X128931606Y-82504624D01*
X128932578Y-83349356D01*
X128952983Y-84166149D01*
X128992770Y-84910947D01*
X129051892Y-85539693D01*
X129129843Y-86006382D01*
X129227116Y-86373243D01*
X129320255Y-86643022D01*
X129392928Y-86770629D01*
X129408070Y-86774527D01*
X129527638Y-86700550D01*
X129798924Y-86511852D01*
X130210080Y-86217019D01*
X130749258Y-85824639D01*
X131404611Y-85343298D01*
X132164289Y-84781583D01*
X132433652Y-84581682D01*
X133051353Y-84146492D01*
X133545522Y-83853417D01*
X133932565Y-83694982D01*
X134228888Y-83663713D01*
X134366348Y-83701217D01*
X134558137Y-83850232D01*
X134626612Y-84008983D01*
X134603463Y-84130928D01*
X134519314Y-84265437D01*
X134352116Y-84431541D01*
X134079818Y-84648270D01*
X133680370Y-84934655D01*
X133131722Y-85309728D01*
X133075723Y-85347507D01*
X132030000Y-86102885D01*
X130965256Y-86964913D01*
X129920637Y-87896635D01*
X128935284Y-88861097D01*
X128048343Y-89821345D01*
X127298956Y-90740422D01*
X127151065Y-90940861D01*
X126497845Y-91941311D01*
X125897121Y-93046084D01*
X125372409Y-94201371D01*
X124947228Y-95353359D01*
X124645093Y-96448238D01*
X124563239Y-96862333D01*
X124502856Y-97311375D01*
X124507096Y-97600293D01*
X124552732Y-97732897D01*
X124701971Y-97832224D01*
X125048486Y-97967864D01*
X125593511Y-98140231D01*
X126338281Y-98349741D01*
X126597266Y-98418951D01*
X127261789Y-98595908D01*
X127753858Y-98731769D01*
X128099320Y-98836791D01*
X128324018Y-98921233D01*
X128453797Y-98995351D01*
X128514501Y-99069403D01*
X128531975Y-99153646D01*
X128532661Y-99187096D01*
X128476960Y-99397344D01*
X128297377Y-99476507D01*
X128126077Y-99462351D01*
X127792977Y-99402743D01*
X127334119Y-99305313D01*
X126785542Y-99177693D01*
X126212511Y-99035029D01*
X125629139Y-98887282D01*
X125118070Y-98761698D01*
X124710687Y-98665673D01*
X124438374Y-98606602D01*
X124332517Y-98591880D01*
X124332398Y-98591989D01*
X124329873Y-98700709D01*
X123449299Y-98700709D01*
X123426964Y-98456876D01*
X123387993Y-98315224D01*
X123328640Y-98247169D01*
X123283669Y-98228612D01*
X123080089Y-98179444D01*
X122713037Y-98098692D01*
X122220078Y-97994055D01*
X121638777Y-97873231D01*
X121006699Y-97743918D01*
X120361409Y-97613813D01*
X119740472Y-97490616D01*
X119181453Y-97382023D01*
X118815164Y-97312893D01*
X118273606Y-97206661D01*
X117899475Y-97116232D01*
X117657214Y-97029927D01*
X117511264Y-96936063D01*
X117450656Y-96864647D01*
X117360769Y-96690569D01*
X117419924Y-96585180D01*
X117523056Y-96523938D01*
X117651861Y-96485624D01*
X117858588Y-96474881D01*
X118161035Y-96494234D01*
X118577001Y-96546208D01*
X119124284Y-96633327D01*
X119820682Y-96758115D01*
X120683994Y-96923098D01*
X121563825Y-97097120D01*
X122135071Y-97206345D01*
X122635761Y-97292628D01*
X123031858Y-97350867D01*
X123289327Y-97375958D01*
X123373010Y-97368351D01*
X123423265Y-97250003D01*
X123519174Y-96966996D01*
X123650484Y-96551732D01*
X123806943Y-96036614D01*
X123973670Y-95470017D01*
X124164640Y-94834069D01*
X124362394Y-94215106D01*
X124550824Y-93660846D01*
X124713823Y-93219010D01*
X124813365Y-92982229D01*
X124939624Y-92692587D01*
X125032979Y-92415039D01*
X125095161Y-92118059D01*
X125127899Y-91770123D01*
X125132922Y-91339704D01*
X125111960Y-90795278D01*
X125066742Y-90105320D01*
X125010767Y-89383862D01*
X124966466Y-88667810D01*
X124935271Y-87810697D01*
X124916680Y-86847674D01*
X124910190Y-85813894D01*
X124915298Y-84744508D01*
X124931503Y-83674668D01*
X124958301Y-82639524D01*
X124995191Y-81674229D01*
X125041669Y-80813934D01*
X125097234Y-80093790D01*
X125150268Y-79624999D01*
X125338542Y-78494179D01*
X125580242Y-77389573D01*
X125865502Y-76340991D01*
X126184458Y-75378244D01*
X126527242Y-74531140D01*
X126883990Y-73829489D01*
X127241077Y-73307593D01*
X127673063Y-72910199D01*
X128169317Y-72650156D01*
X128666472Y-72558064D01*
X129076746Y-72629391D01*
G37*
D12*
%TO.C,BT2*%
X142620000Y-118540000D02*
X142620000Y-121000000D01*
X142620000Y-127000000D02*
X142620000Y-127630000D01*
X142620000Y-127630000D02*
X144060000Y-131580000D01*
X144700000Y-116460000D02*
X142620000Y-118540000D01*
X148200000Y-116460000D02*
X144700000Y-116460000D01*
X162100000Y-116460000D02*
X158600000Y-116460000D01*
X162100000Y-116460000D02*
X164180000Y-118540000D01*
X164180000Y-118540000D02*
X164180000Y-121000000D01*
X164180000Y-127000000D02*
X164180000Y-127630000D01*
X164180000Y-127630000D02*
X162740000Y-131580000D01*
X147396646Y-132566530D02*
G75*
G02*
X144060000Y-131580000I-1306646J1716531D01*
G01*
X162725243Y-131588169D02*
G75*
G02*
X159400000Y-132550000I-2015243J738169D01*
G01*
%TO.C,R2*%
X127141781Y-104018643D02*
X133582424Y-102882984D01*
X127199085Y-104343630D02*
X127141781Y-104018643D01*
X127560273Y-106392030D02*
X127617577Y-106717017D01*
X127617577Y-106717017D02*
X134058220Y-105581358D01*
X133582424Y-102882984D02*
X133639728Y-103207971D01*
X134058220Y-105581358D02*
X134000916Y-105256371D01*
%TO.C,D4*%
X135855000Y-99090000D02*
X138945000Y-99090000D01*
X135855170Y-99090000D02*
G75*
G02*
X137400000Y-93540000I1544830J2560000D01*
G01*
X137400000Y-93540000D02*
G75*
G02*
X138944830Y-99090000I0J-2990000D01*
G01*
X139900000Y-96530000D02*
G75*
G02*
X134900000Y-96530000I-2500000J0D01*
G01*
X134900000Y-96530000D02*
G75*
G02*
X139900000Y-96530000I2500000J0D01*
G01*
%TO.C,R4*%
X150144583Y-86040306D02*
X151280242Y-79599663D01*
X150469570Y-86097610D02*
X150144583Y-86040306D01*
X151280242Y-79599663D02*
X151605229Y-79656967D01*
X152517970Y-86458798D02*
X152842957Y-86516102D01*
X152842957Y-86516102D02*
X153978616Y-80075459D01*
X153978616Y-80075459D02*
X153653629Y-80018155D01*
%TO.C,D6*%
X167370000Y-124655000D02*
X167370000Y-127745000D01*
X167370000Y-124655170D02*
G75*
G02*
X172920000Y-126200000I2560000J-1544830D01*
G01*
X172920000Y-126200000D02*
G75*
G02*
X167370000Y-127744830I-2990000J0D01*
G01*
X172430000Y-126200000D02*
G75*
G02*
X167430000Y-126200000I-2500000J0D01*
G01*
X167430000Y-126200000D02*
G75*
G02*
X172430000Y-126200000I2500000J0D01*
G01*
%TO.C,R5*%
X160330000Y-101030000D02*
X166870000Y-101030000D01*
X160330000Y-101360000D02*
X160330000Y-101030000D01*
X160330000Y-103440000D02*
X160330000Y-103770000D01*
X160330000Y-103770000D02*
X166870000Y-103770000D01*
X166870000Y-101030000D02*
X166870000Y-101360000D01*
X166870000Y-103770000D02*
X166870000Y-103440000D01*
%TD*%
M02*
