M48
; DRILL file {KiCad 9.0.2} date 2025-07-04T00:45:24-0700
; FORMAT={-:-/ absolute / metric / decimal}
; #@! TF.CreationDate,2025-07-04T00:45:24-07:00
; #@! TF.GenerationSoftware,Kicad,Pcbnew,9.0.2
; #@! TF.FileFunction,MixedPlating,1,2
FMAT,2
METRIC
; #@! TA.AperFunction,Plated,PTH,ViaDrill
T1C0.300
; #@! TA.AperFunction,Plated,PTH,ComponentDrill
T2C0.750
; #@! TA.AperFunction,Plated,PTH,ComponentDrill
T3C0.800
; #@! TA.AperFunction,Plated,PTH,ComponentDrill
T4C0.900
; #@! TA.AperFunction,Plated,PTH,ViaDrill
T5C5.000
%
G90
G05
T1
X129.8Y-115.4
X138.0Y-135.2
X143.2Y-132.0
T2
X138.46Y-140.0
X139.73Y-140.0
X141.0Y-140.0
T3
X124.096Y-96.677
X126.848Y-105.462
X127.46Y-134.201
X128.73Y-136.4
X130.0Y-138.6
X131.6Y-98.0
X134.352Y-104.138
X141.6Y-78.78
X141.6Y-86.4
X151.4Y-86.81
X152.723Y-79.306
X155.5Y-107.095
X159.79Y-102.4
X162.1Y-110.905
X163.2Y-140.6
X166.6Y-140.6
X167.41Y-102.4
T4
X128.06Y-122.0
X130.6Y-122.0
X134.66Y-126.8
X136.26Y-119.0
X137.2Y-126.8
X137.4Y-95.26
X137.4Y-97.8
X138.8Y-119.0
X152.8Y-98.46
X152.8Y-101.0
X168.66Y-126.2
X171.2Y-126.2
T5
X146.4Y-82.2
M30
