%TF.GenerationSoftware,KiCad,Pcbnew,9.0.2*%
%TF.CreationDate,2025-06-30T17:21:47-07:00*%
%TF.ProjectId,FirstHCProject,46697273-7448-4435-9072-6f6a6563742e,rev?*%
%TF.SameCoordinates,Original*%
%TF.FileFunction,Legend,Bot*%
%TF.FilePolarity,Positive*%
%FSLAX46Y46*%
G04 Gerber Fmt 4.6, Leading zero omitted, Abs format (unit mm)*
G04 Created by KiCad (PCBNEW 9.0.2) date 2025-06-30 17:21:47*
%MOMM*%
%LPD*%
G01*
G04 APERTURE LIST*
%ADD10C,0.100000*%
G04 APERTURE END LIST*
D10*
X144800000Y-99600000D02*
X144800040Y-99598708D01*
X144800163Y-99597331D01*
X144800376Y-99595861D01*
X144800685Y-99594292D01*
X144801097Y-99592617D01*
X144801621Y-99590829D01*
X144802264Y-99588921D01*
X144803035Y-99586885D01*
X144803944Y-99584713D01*
X144805001Y-99582398D01*
X144806217Y-99579930D01*
X144807601Y-99577302D01*
X144809167Y-99574504D01*
X144810925Y-99571527D01*
X144812888Y-99568362D01*
X144815069Y-99564998D01*
X144817482Y-99561426D01*
X144820141Y-99557633D01*
X144823060Y-99553611D01*
X144826255Y-99549346D01*
X144829741Y-99544826D01*
X144833534Y-99540040D01*
X144837653Y-99534973D01*
X144842114Y-99529612D01*
X144846938Y-99523942D01*
X144852142Y-99517948D01*
X144857749Y-99511614D01*
X144863779Y-99504924D01*
X144870255Y-99497858D01*
X144877201Y-99490398D01*
X144884643Y-99482524D01*
X144892607Y-99474215D01*
X144901122Y-99465446D01*
X144910219Y-99456194D01*
X144919930Y-99446431D01*
X144930292Y-99436128D01*
X144941342Y-99425255D01*
X144953121Y-99413775D01*
X144965677Y-99401650D01*
X144979059Y-99388839D01*
X144993324Y-99375294D01*
X145008534Y-99360961D01*
X145024762Y-99345779D01*
X145042088Y-99329679D01*
X145060607Y-99312579D01*
X145080430Y-99294382D01*
X145101691Y-99274975D01*
X145124550Y-99254216D01*
X145149208Y-99231929D01*
X145175923Y-99207891D01*
X145205033Y-99181803D01*
X145237009Y-99153252D01*
X145272537Y-99121634D01*
X145312707Y-99085988D01*
X145359469Y-99044594D01*
X145417122Y-98993656D01*
X145482373Y-98936068D01*
X145566908Y-98861453D01*
X145610264Y-98823145D01*
X145654286Y-98784202D01*
X145698928Y-98744649D01*
X145744145Y-98704509D01*
X145789892Y-98663807D01*
X145812950Y-98643253D01*
X145836123Y-98622567D01*
X145859406Y-98601753D01*
X145882793Y-98580814D01*
X145906279Y-98559751D01*
X145929857Y-98538570D01*
X145953522Y-98517272D01*
X145977269Y-98495861D01*
X146001091Y-98474339D01*
X146024984Y-98452710D01*
X146048941Y-98430977D01*
X146072957Y-98409143D01*
X146097026Y-98387210D01*
X146121142Y-98365182D01*
X146145300Y-98343062D01*
X146169494Y-98320852D01*
X146193719Y-98298557D01*
X146217969Y-98276178D01*
X146242237Y-98253719D01*
X146266520Y-98231183D01*
X146290810Y-98208573D01*
X146315102Y-98185892D01*
X146339390Y-98163142D01*
X146363670Y-98140328D01*
X146387934Y-98117452D01*
X146412178Y-98094516D01*
X146436396Y-98071525D01*
X146460582Y-98048481D01*
X146484731Y-98025386D01*
X146508836Y-98002245D01*
X146532892Y-97979060D01*
X146556894Y-97955834D01*
X146580836Y-97932570D01*
X146604712Y-97909272D01*
X146628517Y-97885941D01*
X146652244Y-97862582D01*
X146675889Y-97839197D01*
X146699445Y-97815789D01*
X146711188Y-97804078D01*
X146722907Y-97792362D01*
X146734601Y-97780641D01*
X146746269Y-97768917D01*
X146757911Y-97757190D01*
X146769526Y-97745459D01*
X146781113Y-97733726D01*
X146792672Y-97721991D01*
X146804201Y-97710253D01*
X146815701Y-97698515D01*
X146827170Y-97686775D01*
X146838607Y-97675034D01*
X146850013Y-97663292D01*
X146861385Y-97651551D01*
X146872725Y-97639810D01*
X146884030Y-97628070D01*
X146895300Y-97616331D01*
X146906535Y-97604593D01*
X146917733Y-97592858D01*
X146928895Y-97581124D01*
X146940019Y-97569393D01*
X146951104Y-97557666D01*
X146962150Y-97545941D01*
X146973157Y-97534220D01*
X146984123Y-97522504D01*
X146995048Y-97510792D01*
X147005930Y-97499084D01*
X147016770Y-97487382D01*
X147027567Y-97475686D01*
X147038320Y-97463996D01*
X147049028Y-97452312D01*
X147059690Y-97440635D01*
X147070307Y-97428965D01*
X147080876Y-97417302D01*
X147091398Y-97405647D01*
X147101871Y-97394001D01*
X147112296Y-97382364D01*
X147122670Y-97370735D01*
X147132995Y-97359116D01*
X147143268Y-97347506D01*
X147153489Y-97335907D01*
X147163658Y-97324318D01*
X147173773Y-97312741D01*
X147183835Y-97301174D01*
X147193842Y-97289619D01*
X147203793Y-97278077D01*
X147213688Y-97266546D01*
X147223527Y-97255029D01*
X147233308Y-97243525D01*
X147243031Y-97232034D01*
X147252694Y-97220557D01*
X147262299Y-97209095D01*
X147271843Y-97197647D01*
X147281325Y-97186214D01*
X147290746Y-97174797D01*
X147300105Y-97163396D01*
X147309400Y-97152010D01*
X147318632Y-97140642D01*
X147327799Y-97129290D01*
X147336900Y-97117956D01*
X147345936Y-97106639D01*
X147354905Y-97095341D01*
X147363806Y-97084061D01*
X147372640Y-97072800D01*
X147381404Y-97061558D01*
X147390099Y-97050335D01*
X147398724Y-97039133D01*
X147407278Y-97027951D01*
X147415760Y-97016790D01*
X147424169Y-97005650D01*
X147432506Y-96994531D01*
X147440769Y-96983434D01*
X147448957Y-96972360D01*
X147457070Y-96961308D01*
X147465107Y-96950279D01*
X147473068Y-96939274D01*
X147480951Y-96928292D01*
X147488756Y-96917335D01*
X147496483Y-96906401D01*
X147504130Y-96895493D01*
X147511696Y-96884610D01*
X147519182Y-96873753D01*
X147526587Y-96862922D01*
X147533909Y-96852117D01*
X147541148Y-96841339D01*
X147548303Y-96830588D01*
X147555374Y-96819865D01*
X147562360Y-96809169D01*
X147569260Y-96798502D01*
X147576073Y-96787864D01*
X147582799Y-96777254D01*
X147589437Y-96766674D01*
X147595987Y-96756124D01*
X147602447Y-96745604D01*
X147608817Y-96735115D01*
X147615097Y-96724656D01*
X147621284Y-96714229D01*
X147627380Y-96703834D01*
X147633383Y-96693470D01*
X147639292Y-96683139D01*
X147645107Y-96672841D01*
X147650826Y-96662576D01*
X147656450Y-96652344D01*
X147661978Y-96642147D01*
X147667408Y-96631984D01*
X147672741Y-96621855D01*
X147677975Y-96611762D01*
X147683109Y-96601704D01*
X147688144Y-96591682D01*
X147693078Y-96581696D01*
X147697911Y-96571747D01*
X147702641Y-96561835D01*
X147707269Y-96551960D01*
X147711793Y-96542123D01*
X147716213Y-96532324D01*
X147718383Y-96527439D01*
X147720528Y-96522563D01*
X147722646Y-96517698D01*
X147724737Y-96512842D01*
X147726802Y-96507996D01*
X147728840Y-96503159D01*
X147730851Y-96498333D01*
X147732836Y-96493516D01*
X147734793Y-96488710D01*
X147736724Y-96483914D01*
X147738627Y-96479127D01*
X147740503Y-96474351D01*
X147742352Y-96469585D01*
X147744174Y-96464829D01*
X147745968Y-96460084D01*
X147747734Y-96455349D01*
X147749473Y-96450624D01*
X147751184Y-96445910D01*
X147752867Y-96441206D01*
X147754523Y-96436513D01*
X147756150Y-96431830D01*
X147757749Y-96427158D01*
X147759320Y-96422496D01*
X147760863Y-96417845D01*
X147762377Y-96413205D01*
X147763863Y-96408576D01*
X147765321Y-96403958D01*
X147766750Y-96399350D01*
X147768150Y-96394754D01*
X147769521Y-96390168D01*
X147770863Y-96385594D01*
X147772177Y-96381030D01*
X147773461Y-96376478D01*
X147774716Y-96371937D01*
X147775942Y-96367407D01*
X147777139Y-96362888D01*
X147778306Y-96358381D01*
X147779444Y-96353885D01*
X147780552Y-96349400D01*
X147781630Y-96344927D01*
X147782679Y-96340466D01*
X147783698Y-96336016D01*
X147784686Y-96331577D01*
X147785645Y-96327151D01*
X147786574Y-96322736D01*
X147787472Y-96318332D01*
X147788340Y-96313941D01*
X147789178Y-96309561D01*
X147789985Y-96305193D01*
X147790762Y-96300838D01*
X147791508Y-96296494D01*
X147792223Y-96292162D01*
X147792908Y-96287842D01*
X147793561Y-96283534D01*
X147794184Y-96279239D01*
X147794775Y-96274956D01*
X147795335Y-96270685D01*
X147795864Y-96266426D01*
X147796362Y-96262180D01*
X147796828Y-96257946D01*
X147797262Y-96253724D01*
X147797665Y-96249515D01*
X147798036Y-96245319D01*
X147798376Y-96241135D01*
X147798683Y-96236964D01*
X147798958Y-96232805D01*
X147799202Y-96228660D01*
X147799413Y-96224527D01*
X147799592Y-96220407D01*
X147799739Y-96216299D01*
X147799853Y-96212205D01*
X147799935Y-96208124D01*
X147799984Y-96204055D01*
X147800000Y-96200000D01*
X145200000Y-94200000D02*
X144400000Y-95000000D01*
X144400000Y-95000000D02*
X144393302Y-94991492D01*
X144386609Y-94983021D01*
X144379925Y-94974595D01*
X144373245Y-94966206D01*
X144366576Y-94957862D01*
X144359910Y-94949555D01*
X144353254Y-94941293D01*
X144346602Y-94933067D01*
X144339960Y-94924885D01*
X144333322Y-94916740D01*
X144326695Y-94908638D01*
X144320071Y-94900573D01*
X144313457Y-94892552D01*
X144306847Y-94884567D01*
X144300247Y-94876626D01*
X144293651Y-94868720D01*
X144287065Y-94860858D01*
X144280483Y-94853031D01*
X144273911Y-94845247D01*
X144267343Y-94837499D01*
X144260784Y-94829794D01*
X144254230Y-94822124D01*
X144247686Y-94814497D01*
X144241146Y-94806904D01*
X144234615Y-94799354D01*
X144228089Y-94791839D01*
X144221572Y-94784366D01*
X144215060Y-94776928D01*
X144208557Y-94769532D01*
X144202058Y-94762170D01*
X144195570Y-94754850D01*
X144189085Y-94747565D01*
X144182610Y-94740320D01*
X144176139Y-94733110D01*
X144169678Y-94725941D01*
X144163221Y-94718806D01*
X144156774Y-94711712D01*
X144150330Y-94704652D01*
X144143897Y-94697633D01*
X144137467Y-94690647D01*
X144131048Y-94683701D01*
X144124632Y-94676789D01*
X144118226Y-94669917D01*
X144111824Y-94663079D01*
X144105432Y-94656280D01*
X144099044Y-94649515D01*
X144092665Y-94642789D01*
X144086291Y-94636097D01*
X144079926Y-94629443D01*
X144073565Y-94622823D01*
X144067214Y-94616242D01*
X144060867Y-94609693D01*
X144054530Y-94603184D01*
X144048196Y-94596707D01*
X144041873Y-94590268D01*
X144035553Y-94583862D01*
X144029243Y-94577494D01*
X144022937Y-94571159D01*
X144016640Y-94564862D01*
X144010348Y-94558597D01*
X144004065Y-94552369D01*
X143997786Y-94546174D01*
X143991517Y-94540016D01*
X143985251Y-94533891D01*
X143978995Y-94527802D01*
X143972743Y-94521745D01*
X143966501Y-94515726D01*
X143960263Y-94509738D01*
X143954034Y-94503786D01*
X143947809Y-94497866D01*
X143941593Y-94491983D01*
X143935382Y-94486131D01*
X143929180Y-94480315D01*
X143922982Y-94474531D01*
X143916793Y-94468783D01*
X143910609Y-94463065D01*
X143904433Y-94457384D01*
X143898262Y-94451733D01*
X143892100Y-94446118D01*
X143885942Y-94440533D01*
X143879793Y-94434984D01*
X143873648Y-94429466D01*
X143867513Y-94423982D01*
X143861382Y-94418529D01*
X143855259Y-94413111D01*
X143849141Y-94407724D01*
X143843032Y-94402371D01*
X143836927Y-94397048D01*
X143830831Y-94391759D01*
X143824739Y-94386500D01*
X143818656Y-94381276D01*
X143812577Y-94376082D01*
X143806508Y-94370921D01*
X143800442Y-94365790D01*
X143794385Y-94360693D01*
X143788332Y-94355625D01*
X143782289Y-94350591D01*
X143776249Y-94345587D01*
X143770218Y-94340616D01*
X143764191Y-94335673D01*
X143758173Y-94330764D01*
X143752160Y-94325885D01*
X143746155Y-94321038D01*
X143740154Y-94316220D01*
X143734161Y-94311434D01*
X143728173Y-94306678D01*
X143722194Y-94301954D01*
X143716218Y-94297258D01*
X143710252Y-94292595D01*
X143704289Y-94287960D01*
X143698335Y-94283358D01*
X143692385Y-94278783D01*
X143686443Y-94274241D01*
X143680506Y-94269727D01*
X143674577Y-94265244D01*
X143668653Y-94260790D01*
X143662736Y-94256366D01*
X143656824Y-94251971D01*
X143650920Y-94247607D01*
X143645020Y-94243271D01*
X143639129Y-94238966D01*
X143633242Y-94234689D01*
X143627363Y-94230442D01*
X143621488Y-94226223D01*
X143615621Y-94222034D01*
X143609759Y-94217873D01*
X143603904Y-94213742D01*
X143598054Y-94209639D01*
X143592212Y-94205565D01*
X143586374Y-94201519D01*
X143580544Y-94197503D01*
X143574718Y-94193514D01*
X143568900Y-94189555D01*
X143563086Y-94185622D01*
X143557280Y-94181719D01*
X143551479Y-94177843D01*
X143545685Y-94173996D01*
X143539895Y-94170176D01*
X143534113Y-94166385D01*
X143528335Y-94162621D01*
X143522565Y-94158885D01*
X143516799Y-94155176D01*
X143511041Y-94151496D01*
X143505287Y-94147842D01*
X143499540Y-94144216D01*
X143493798Y-94140617D01*
X143488063Y-94137046D01*
X143482333Y-94133502D01*
X143476609Y-94129985D01*
X143470890Y-94126494D01*
X143465179Y-94123031D01*
X143459471Y-94119595D01*
X143453771Y-94116186D01*
X143448075Y-94112802D01*
X143442386Y-94109446D01*
X143436702Y-94106116D01*
X143431024Y-94102814D01*
X143425351Y-94099536D01*
X143419685Y-94096286D01*
X143414023Y-94093062D01*
X143408368Y-94089864D01*
X143402718Y-94086692D01*
X143397074Y-94083546D01*
X143391434Y-94080426D01*
X143385802Y-94077333D01*
X143380173Y-94074264D01*
X143374552Y-94071222D01*
X143368934Y-94068205D01*
X143363323Y-94065214D01*
X143357717Y-94062248D01*
X143352117Y-94059309D01*
X143346521Y-94056394D01*
X143340932Y-94053505D01*
X143335347Y-94050640D01*
X143329769Y-94047802D01*
X143324195Y-94044988D01*
X143318627Y-94042199D01*
X143313063Y-94039436D01*
X143307506Y-94036697D01*
X143301953Y-94033983D01*
X143296406Y-94031294D01*
X143290864Y-94028630D01*
X143285327Y-94025990D01*
X143279795Y-94023375D01*
X143274269Y-94020785D01*
X143268747Y-94018218D01*
X143263232Y-94015677D01*
X143257720Y-94013160D01*
X143252214Y-94010667D01*
X143246713Y-94008198D01*
X143241217Y-94005753D01*
X143235726Y-94003333D01*
X143230240Y-94000936D01*
X143224759Y-93998564D01*
X143219283Y-93996215D01*
X143213811Y-93993890D01*
X143208345Y-93991589D01*
X143202884Y-93989312D01*
X143197427Y-93987059D01*
X143191976Y-93984829D01*
X143186529Y-93982622D01*
X143181087Y-93980439D01*
X143175649Y-93978280D01*
X143170217Y-93976144D01*
X143164789Y-93974031D01*
X143159366Y-93971942D01*
X143153947Y-93969876D01*
X143148534Y-93967832D01*
X143143125Y-93965813D01*
X143137720Y-93963816D01*
X143132320Y-93961842D01*
X143126925Y-93959891D01*
X143121534Y-93957963D01*
X143116148Y-93956057D01*
X143110766Y-93954175D01*
X143105389Y-93952315D01*
X143100016Y-93950478D01*
X143094647Y-93948664D01*
X143089283Y-93946872D01*
X143083924Y-93945103D01*
X143078568Y-93943356D01*
X143073217Y-93941631D01*
X143067871Y-93939929D01*
X143062529Y-93938250D01*
X143057190Y-93936592D01*
X143051857Y-93934957D01*
X143046527Y-93933344D01*
X143041202Y-93931753D01*
X143035880Y-93930184D01*
X143030564Y-93928638D01*
X143025250Y-93927113D01*
X143019942Y-93925610D01*
X143014637Y-93924129D01*
X143009336Y-93922671D01*
X143004039Y-93921233D01*
X142998747Y-93919818D01*
X142993458Y-93918424D01*
X142988173Y-93917053D01*
X142982892Y-93915702D01*
X142977616Y-93914374D01*
X142972342Y-93913067D01*
X142967073Y-93911781D01*
X142961807Y-93910517D01*
X142956546Y-93909275D01*
X142951288Y-93908054D01*
X142946035Y-93906854D01*
X142940784Y-93905675D01*
X142935538Y-93904518D01*
X142930294Y-93903382D01*
X142925055Y-93902268D01*
X142919819Y-93901174D01*
X142914588Y-93900102D01*
X142909358Y-93899051D01*
X142904134Y-93898021D01*
X142898912Y-93897012D01*
X142893695Y-93896024D01*
X142888480Y-93895057D01*
X142883269Y-93894111D01*
X142878061Y-93893186D01*
X142872858Y-93892282D01*
X142867656Y-93891398D01*
X142862459Y-93890536D01*
X142857264Y-93889694D01*
X142852074Y-93888873D01*
X142846886Y-93888073D01*
X142841702Y-93887294D01*
X142836520Y-93886535D01*
X142831343Y-93885797D01*
X142826167Y-93885079D01*
X142820997Y-93884382D01*
X142810663Y-93883050D01*
X142800341Y-93881800D01*
X142790031Y-93880632D01*
X142779734Y-93879545D01*
X142769447Y-93878540D01*
X142759173Y-93877617D01*
X142748909Y-93876774D01*
X142738657Y-93876013D01*
X142728415Y-93875332D01*
X142718184Y-93874733D01*
X142707963Y-93874213D01*
X142697753Y-93873775D01*
X142687552Y-93873417D01*
X142677361Y-93873138D01*
X142667180Y-93872941D01*
X142657009Y-93872823D01*
X142646846Y-93872785D01*
X142636693Y-93872827D01*
X142626548Y-93872949D01*
X142616412Y-93873150D01*
X142606285Y-93873432D01*
X142596166Y-93873793D01*
X142586054Y-93874234D01*
X142575951Y-93874754D01*
X142565855Y-93875354D01*
X142555767Y-93876033D01*
X142545686Y-93876792D01*
X142535613Y-93877631D01*
X142525546Y-93878549D01*
X142515486Y-93879546D01*
X142505433Y-93880624D01*
X142495386Y-93881781D01*
X142485345Y-93883017D01*
X142475310Y-93884334D01*
X142465282Y-93885730D01*
X142455259Y-93887206D01*
X142445242Y-93888762D01*
X142435230Y-93890397D01*
X142425224Y-93892113D01*
X142415222Y-93893910D01*
X142405226Y-93895786D01*
X142395235Y-93897743D01*
X142385248Y-93899780D01*
X142375266Y-93901898D01*
X142365288Y-93904096D01*
X142355315Y-93906375D01*
X142345346Y-93908736D01*
X142335381Y-93911177D01*
X142325420Y-93913700D01*
X142315463Y-93916304D01*
X142305510Y-93918990D01*
X142295560Y-93921757D01*
X142285614Y-93924607D01*
X142275671Y-93927539D01*
X142265731Y-93930552D01*
X142255795Y-93933649D01*
X142245862Y-93936828D01*
X142235932Y-93940090D01*
X142226006Y-93943435D01*
X142216082Y-93946863D01*
X142206161Y-93950375D01*
X142196242Y-93953971D01*
X142186327Y-93957650D01*
X142176414Y-93961414D01*
X142166504Y-93965262D01*
X142156597Y-93969195D01*
X142146692Y-93973213D01*
X142136790Y-93977316D01*
X142126891Y-93981504D01*
X142116994Y-93985778D01*
X142107099Y-93990138D01*
X142097207Y-93994585D01*
X142087318Y-93999117D01*
X142077431Y-94003736D01*
X142067547Y-94008443D01*
X142057666Y-94013236D01*
X142047787Y-94018117D01*
X142037911Y-94023086D01*
X142028037Y-94028143D01*
X142018167Y-94033288D01*
X142008299Y-94038522D01*
X141998434Y-94043845D01*
X141988572Y-94049257D01*
X141978713Y-94054758D01*
X141968857Y-94060349D01*
X141959005Y-94066030D01*
X141949156Y-94071801D01*
X141939310Y-94077663D01*
X141929468Y-94083616D01*
X141919630Y-94089660D01*
X141909795Y-94095795D01*
X141899965Y-94102022D01*
X141890139Y-94108341D01*
X141880317Y-94114752D01*
X141870499Y-94121256D01*
X141860687Y-94127852D01*
X141850879Y-94134541D01*
X141841076Y-94141324D01*
X141831278Y-94148200D01*
X141821486Y-94155169D01*
X141811700Y-94162233D01*
X141801920Y-94169391D01*
X141792146Y-94176643D01*
X141782378Y-94183990D01*
X141772617Y-94191432D01*
X141762863Y-94198969D01*
X141753117Y-94206602D01*
X141743378Y-94214330D01*
X141733647Y-94222153D01*
X141723924Y-94230073D01*
X141714210Y-94238088D01*
X141704505Y-94246200D01*
X141694809Y-94254408D01*
X141685122Y-94262712D01*
X141675446Y-94271113D01*
X141665780Y-94279611D01*
X141656125Y-94288206D01*
X141646481Y-94296898D01*
X141636849Y-94305686D01*
X141627229Y-94314572D01*
X141617621Y-94323555D01*
X141608027Y-94332635D01*
X141598446Y-94341813D01*
X141588879Y-94351087D01*
X141579326Y-94360459D01*
X141569789Y-94369928D01*
X141560267Y-94379494D01*
X141550761Y-94389157D01*
X141541271Y-94398917D01*
X141531799Y-94408774D01*
X141522345Y-94418728D01*
X141512909Y-94428779D01*
X141503492Y-94438926D01*
X141494094Y-94449169D01*
X141484717Y-94459508D01*
X141475361Y-94469943D01*
X141466026Y-94480474D01*
X141456714Y-94491100D01*
X141447424Y-94501821D01*
X141438158Y-94512637D01*
X141428917Y-94523547D01*
X141419701Y-94534550D01*
X141410510Y-94545647D01*
X141401347Y-94556838D01*
X141392211Y-94568120D01*
X141383103Y-94579495D01*
X141374024Y-94590961D01*
X141364975Y-94602518D01*
X141355957Y-94614165D01*
X141346970Y-94625902D01*
X141338016Y-94637727D01*
X141329096Y-94649641D01*
X141320210Y-94661642D01*
X141311359Y-94673729D01*
X141302544Y-94685902D01*
X141293767Y-94698160D01*
X141285028Y-94710502D01*
X141276327Y-94722927D01*
X141267667Y-94735434D01*
X141259049Y-94748021D01*
X141250472Y-94760688D01*
X141241938Y-94773434D01*
X141233449Y-94786257D01*
X141225006Y-94799156D01*
X141216608Y-94812130D01*
X141208259Y-94825178D01*
X141199958Y-94838297D01*
X141191706Y-94851487D01*
X141183506Y-94864746D01*
X141175358Y-94878073D01*
X141167263Y-94891465D01*
X141159223Y-94904922D01*
X141151238Y-94918441D01*
X141143310Y-94932021D01*
X141135440Y-94945660D01*
X141127629Y-94959356D01*
X141119879Y-94973108D01*
X141112190Y-94986912D01*
X141104564Y-95000767D01*
X141097003Y-95014672D01*
X141089507Y-95028623D01*
X141082077Y-95042619D01*
X141074716Y-95056658D01*
X141067423Y-95070736D01*
X141060201Y-95084852D01*
X141053050Y-95099003D01*
X141045973Y-95113187D01*
X141038969Y-95127402D01*
X141032041Y-95141644D01*
X141025190Y-95155910D01*
X141018416Y-95170199D01*
X141011722Y-95184508D01*
X141005107Y-95198833D01*
X140998575Y-95213172D01*
X140992125Y-95227522D01*
X140985759Y-95241881D01*
X140979478Y-95256244D01*
X140973283Y-95270609D01*
X140967175Y-95284973D01*
X140961156Y-95299333D01*
X140958180Y-95306513D01*
X140955227Y-95313686D01*
X140952296Y-95320860D01*
X140949388Y-95328029D01*
X140946503Y-95335196D01*
X140943641Y-95342358D01*
X140940802Y-95349517D01*
X140937987Y-95356670D01*
X140935194Y-95363819D01*
X140932426Y-95370962D01*
X140929681Y-95378100D01*
X140926961Y-95385230D01*
X140924263Y-95392355D01*
X140921590Y-95399472D01*
X140918941Y-95406583D01*
X140916317Y-95413684D01*
X140913717Y-95420778D01*
X140911141Y-95427863D01*
X140908590Y-95434939D01*
X140906063Y-95442006D01*
X140903561Y-95449062D01*
X140901084Y-95456108D01*
X140898633Y-95463143D01*
X140896206Y-95470167D01*
X140893804Y-95477179D01*
X140891427Y-95484180D01*
X140889077Y-95491167D01*
X140886751Y-95498143D01*
X140884451Y-95505103D01*
X140882176Y-95512052D01*
X140879927Y-95518985D01*
X140877704Y-95525905D01*
X140875507Y-95532808D01*
X140873335Y-95539699D01*
X140871190Y-95546570D01*
X140869069Y-95553429D01*
X140866976Y-95560267D01*
X140864908Y-95567093D01*
X140862868Y-95573897D01*
X140860852Y-95580687D01*
X140858864Y-95587455D01*
X140856900Y-95594209D01*
X140854965Y-95600939D01*
X140853054Y-95607654D01*
X140851172Y-95614345D01*
X140849314Y-95621021D01*
X140847484Y-95627671D01*
X140845679Y-95634306D01*
X140843902Y-95640913D01*
X140842150Y-95647505D01*
X140840427Y-95654069D01*
X140838728Y-95660617D01*
X140837057Y-95667135D01*
X140835412Y-95673637D01*
X140833794Y-95680108D01*
X140832202Y-95686563D01*
X140830638Y-95692987D01*
X140829098Y-95699393D01*
X140827587Y-95705767D01*
X140826101Y-95712123D01*
X140824643Y-95718446D01*
X140823209Y-95724751D01*
X140821804Y-95731022D01*
X140820424Y-95737275D01*
X140819072Y-95743492D01*
X140817744Y-95749691D01*
X140816445Y-95755853D01*
X140815170Y-95761997D01*
X140813923Y-95768104D01*
X140812700Y-95774191D01*
X140811506Y-95780241D01*
X140810335Y-95786271D01*
X140809193Y-95792262D01*
X140808074Y-95798234D01*
X140806984Y-95804166D01*
X140805917Y-95810078D01*
X140804879Y-95815950D01*
X140803864Y-95821801D01*
X140802876Y-95827612D01*
X140801912Y-95833402D01*
X140800976Y-95839150D01*
X140800063Y-95844878D01*
X140799177Y-95850563D01*
X140798315Y-95856227D01*
X140797479Y-95861848D01*
X140796667Y-95867448D01*
X140795882Y-95873004D01*
X140795119Y-95878540D01*
X140794383Y-95884030D01*
X140793670Y-95889500D01*
X140792983Y-95894924D01*
X140792319Y-95900328D01*
X140791681Y-95905685D01*
X140791066Y-95911021D01*
X140790476Y-95916311D01*
X140789908Y-95921580D01*
X140789366Y-95926802D01*
X140788846Y-95932002D01*
X140788351Y-95937155D01*
X140787878Y-95942287D01*
X140787429Y-95947371D01*
X140787003Y-95952434D01*
X140786600Y-95957448D01*
X140786220Y-95962441D01*
X140785863Y-95967386D01*
X140785528Y-95972309D01*
X140785217Y-95977184D01*
X140784926Y-95982037D01*
X140784659Y-95986841D01*
X140784413Y-95991624D01*
X140784190Y-95996358D01*
X140783988Y-96001069D01*
X140783807Y-96005732D01*
X140783648Y-96010373D01*
X140783511Y-96014965D01*
X140783394Y-96019535D01*
X140783298Y-96024056D01*
X140783223Y-96028554D01*
X140783169Y-96033004D01*
X140783135Y-96037432D01*
X140783122Y-96041811D01*
X140783129Y-96046167D01*
X140783155Y-96050475D01*
X140783202Y-96054760D01*
X140783268Y-96058997D01*
X140783354Y-96063211D01*
X140783458Y-96067377D01*
X140783583Y-96071521D01*
X140783726Y-96075616D01*
X140783888Y-96079689D01*
X140784068Y-96083714D01*
X140784268Y-96087716D01*
X140784485Y-96091671D01*
X140784721Y-96095603D01*
X140784974Y-96099487D01*
X140785246Y-96103349D01*
X140785534Y-96107164D01*
X140785841Y-96110957D01*
X140786164Y-96114702D01*
X140786506Y-96118426D01*
X140786863Y-96122102D01*
X140787238Y-96125756D01*
X140787629Y-96129364D01*
X140788037Y-96132950D01*
X140788461Y-96136490D01*
X140788902Y-96140008D01*
X140789357Y-96143479D01*
X140789830Y-96146930D01*
X140790317Y-96150334D01*
X140790821Y-96153718D01*
X140791338Y-96157056D01*
X140791873Y-96160372D01*
X140792420Y-96163644D01*
X140792984Y-96166894D01*
X140793561Y-96170101D01*
X140794155Y-96173286D01*
X140794761Y-96176427D01*
X140795383Y-96179547D01*
X140796017Y-96182624D01*
X140796667Y-96185680D01*
X140797328Y-96188693D01*
X140798006Y-96191685D01*
X140798694Y-96194635D01*
X140799398Y-96197564D01*
X140800000Y-96200000D01*
X140800000Y-96200000D02*
X140801311Y-96205080D01*
X140802731Y-96210261D01*
X140804263Y-96215545D01*
X140805908Y-96220933D01*
X140807670Y-96226429D01*
X140809551Y-96232033D01*
X140811553Y-96237749D01*
X140813681Y-96243577D01*
X140815935Y-96249520D01*
X140818320Y-96255581D01*
X140820838Y-96261760D01*
X140823492Y-96268061D01*
X140826285Y-96274485D01*
X140829220Y-96281035D01*
X140832300Y-96287712D01*
X140835528Y-96294519D01*
X140838907Y-96301457D01*
X140842441Y-96308530D01*
X140846132Y-96315738D01*
X140849985Y-96323085D01*
X140854001Y-96330572D01*
X140858185Y-96338202D01*
X140862539Y-96345976D01*
X140867068Y-96353898D01*
X140871775Y-96361969D01*
X140876662Y-96370191D01*
X140881735Y-96378567D01*
X140886995Y-96387098D01*
X140892447Y-96395788D01*
X140898094Y-96404638D01*
X140903940Y-96413651D01*
X140909989Y-96422829D01*
X140916244Y-96432173D01*
X140922708Y-96441688D01*
X140929386Y-96451373D01*
X140936281Y-96461233D01*
X140943397Y-96471269D01*
X140950738Y-96481483D01*
X140958308Y-96491879D01*
X140966110Y-96502457D01*
X140974148Y-96513220D01*
X140982427Y-96524171D01*
X140990949Y-96535312D01*
X140999719Y-96546646D01*
X141008741Y-96558173D01*
X141018018Y-96569897D01*
X141027555Y-96581820D01*
X141037356Y-96593945D01*
X141047424Y-96606273D01*
X141057763Y-96618806D01*
X141068377Y-96631547D01*
X141079271Y-96644499D01*
X141090448Y-96657662D01*
X141101912Y-96671041D01*
X141113668Y-96684636D01*
X141125718Y-96698449D01*
X141138067Y-96712484D01*
X141150719Y-96726742D01*
X141163678Y-96741224D01*
X141176948Y-96755934D01*
X141190532Y-96770874D01*
X141204435Y-96786044D01*
X141218660Y-96801448D01*
X141233211Y-96817087D01*
X141248092Y-96832963D01*
X141263306Y-96849078D01*
X141278858Y-96865433D01*
X141294751Y-96882031D01*
X141310988Y-96898874D01*
X141327574Y-96915962D01*
X141344511Y-96933298D01*
X141361804Y-96950883D01*
X141379455Y-96968718D01*
X141397468Y-96986806D01*
X141415847Y-97005147D01*
X141434594Y-97023743D01*
X141453713Y-97042595D01*
X141473206Y-97061704D01*
X141493077Y-97081072D01*
X141513329Y-97100698D01*
X141533964Y-97120585D01*
X141554984Y-97140733D01*
X141576393Y-97161142D01*
X141598193Y-97181813D01*
X141620386Y-97202747D01*
X141642974Y-97223943D01*
X141665960Y-97245403D01*
X141689344Y-97267126D01*
X141713128Y-97289112D01*
X141737315Y-97311361D01*
X141761905Y-97333872D01*
X141786900Y-97356645D01*
X141812299Y-97379679D01*
X141838105Y-97402974D01*
X141864317Y-97426527D01*
X141890935Y-97450339D01*
X141917959Y-97474406D01*
X141945389Y-97498729D01*
X141973225Y-97523303D01*
X142001465Y-97548129D01*
X142030107Y-97573201D01*
X142059151Y-97598520D01*
X142088594Y-97624080D01*
X142118434Y-97649879D01*
X142148668Y-97675913D01*
X142179292Y-97702179D01*
X142210305Y-97728671D01*
X142241700Y-97755387D01*
X142273474Y-97782319D01*
X142305623Y-97809464D01*
X142338139Y-97836816D01*
X142371018Y-97864368D01*
X142404252Y-97892114D01*
X142437835Y-97920047D01*
X142471759Y-97948160D01*
X142506015Y-97976444D01*
X142540594Y-98004893D01*
X142575488Y-98033496D01*
X142610685Y-98062245D01*
X142646174Y-98091130D01*
X142681944Y-98120141D01*
X142717983Y-98149266D01*
X142754276Y-98178496D01*
X142790811Y-98207816D01*
X142827571Y-98237217D01*
X142864542Y-98266683D01*
X142901707Y-98296203D01*
X142939049Y-98325761D01*
X142976550Y-98355343D01*
X143014191Y-98384934D01*
X143051952Y-98414518D01*
X143089813Y-98444079D01*
X143127752Y-98473600D01*
X143165746Y-98503064D01*
X143203774Y-98532453D01*
X143241812Y-98561748D01*
X143279834Y-98590931D01*
X143317816Y-98619983D01*
X143355732Y-98648884D01*
X143393556Y-98677614D01*
X143431260Y-98706154D01*
X143450068Y-98720353D01*
X143468818Y-98734483D01*
X143487540Y-98748567D01*
X143506201Y-98762580D01*
X143524823Y-98776540D01*
X143543381Y-98790426D01*
X143561890Y-98804250D01*
X143580330Y-98817999D01*
X143598711Y-98831678D01*
X143617019Y-98845278D01*
X143635257Y-98858802D01*
X143653420Y-98872244D01*
X143671502Y-98885602D01*
X143689504Y-98898876D01*
X143707414Y-98912058D01*
X143725242Y-98925154D01*
X143742967Y-98938150D01*
X143760607Y-98951059D01*
X143778133Y-98963859D01*
X143795570Y-98976570D01*
X143812882Y-98989166D01*
X143830104Y-99001670D01*
X143847189Y-99014051D01*
X143864181Y-99026340D01*
X143881027Y-99038499D01*
X143897777Y-99050562D01*
X143914371Y-99062490D01*
X143930865Y-99074321D01*
X143947194Y-99086009D01*
X143963421Y-99097599D01*
X143979473Y-99109041D01*
X143995421Y-99120383D01*
X144011186Y-99131570D01*
X144026844Y-99142657D01*
X144042310Y-99153584D01*
X144057668Y-99164410D01*
X144072826Y-99175070D01*
X144087873Y-99185628D01*
X144102713Y-99196016D01*
X144117441Y-99206301D01*
X144131955Y-99216413D01*
X144146356Y-99226421D01*
X144160536Y-99236251D01*
X144174601Y-99245977D01*
X144188439Y-99255523D01*
X144202162Y-99264964D01*
X144215654Y-99274221D01*
X144229028Y-99283374D01*
X144242167Y-99292342D01*
X144255188Y-99301205D01*
X144267969Y-99309880D01*
X144280633Y-99318451D01*
X144293053Y-99326834D01*
X144305355Y-99335112D01*
X144317411Y-99343201D01*
X144329349Y-99351186D01*
X144341039Y-99358981D01*
X144352612Y-99366674D01*
X144363934Y-99374177D01*
X144375139Y-99381577D01*
X144386094Y-99388788D01*
X144396931Y-99395899D01*
X144407518Y-99402820D01*
X144417989Y-99409642D01*
X144428210Y-99416277D01*
X144438315Y-99422813D01*
X144448170Y-99429164D01*
X144457912Y-99435417D01*
X144467405Y-99441487D01*
X144476785Y-99447461D01*
X144485919Y-99453254D01*
X144494942Y-99458953D01*
X144503720Y-99464474D01*
X144512389Y-99469902D01*
X144520816Y-99475155D01*
X144529135Y-99480317D01*
X144537216Y-99485308D01*
X144545191Y-99490209D01*
X144552931Y-99494943D01*
X144560567Y-99499589D01*
X144567973Y-99504072D01*
X144575276Y-99508469D01*
X144582352Y-99512706D01*
X144589329Y-99516860D01*
X144596084Y-99520859D01*
X144602740Y-99524776D01*
X144609180Y-99528542D01*
X144615525Y-99532229D01*
X144621657Y-99535769D01*
X144627696Y-99539233D01*
X144633529Y-99542555D01*
X144639271Y-99545802D01*
X144644812Y-99548912D01*
X144650264Y-99551949D01*
X144655521Y-99554855D01*
X144660692Y-99557690D01*
X144665674Y-99560398D01*
X144670572Y-99563038D01*
X144675287Y-99565557D01*
X144679921Y-99568009D01*
X144684376Y-99570344D01*
X144688755Y-99572616D01*
X144692961Y-99574776D01*
X144697092Y-99576874D01*
X144701056Y-99578866D01*
X144704949Y-99580799D01*
X144708681Y-99582629D01*
X144712344Y-99584403D01*
X144715852Y-99586080D01*
X144719294Y-99587703D01*
X144722587Y-99589234D01*
X144725816Y-99590712D01*
X144728903Y-99592104D01*
X144731928Y-99593445D01*
X144734817Y-99594704D01*
X144737647Y-99595915D01*
X144740347Y-99597049D01*
X144742991Y-99598137D01*
X144745510Y-99599152D01*
X144747975Y-99600123D01*
X144750321Y-99601026D01*
X144752616Y-99601888D01*
X144754798Y-99602686D01*
X144756931Y-99603444D01*
X144758957Y-99604143D01*
X144760937Y-99604805D01*
X144762814Y-99605411D01*
X144764647Y-99605982D01*
X144766384Y-99606501D01*
X144768079Y-99606987D01*
X144769683Y-99607426D01*
X144771248Y-99607833D01*
X144772726Y-99608197D01*
X144774167Y-99608531D01*
X144775527Y-99608826D01*
X144776852Y-99609092D01*
X144778101Y-99609322D01*
X144779316Y-99609526D01*
X144780461Y-99609698D01*
X144781574Y-99609844D01*
X144782621Y-99609961D01*
X144783638Y-99610054D01*
X144784593Y-99610122D01*
X144785521Y-99610167D01*
X144786392Y-99610190D01*
X144787236Y-99610191D01*
X144788028Y-99610173D01*
X144788795Y-99610134D01*
X144789513Y-99610078D01*
X144790208Y-99610004D01*
X144790859Y-99609914D01*
X144791488Y-99609806D01*
X144792077Y-99609685D01*
X144792645Y-99609548D01*
X144793176Y-99609399D01*
X144793688Y-99609234D01*
X144794167Y-99609059D01*
X144794627Y-99608869D01*
X144795057Y-99608669D01*
X144795470Y-99608456D01*
X144795857Y-99608233D01*
X144796227Y-99607997D01*
X144796573Y-99607752D01*
X144796903Y-99607495D01*
X144797211Y-99607228D01*
X144797504Y-99606948D01*
X144797778Y-99606658D01*
X144798037Y-99606356D01*
X144798278Y-99606043D01*
X144798504Y-99605717D01*
X144798908Y-99605029D01*
X144799250Y-99604286D01*
X144799532Y-99603484D01*
X144799750Y-99602617D01*
X144799902Y-99601680D01*
X144799986Y-99600665D01*
X144800000Y-99600000D01*
X147800000Y-96200000D02*
X147799960Y-96185752D01*
X147799839Y-96171232D01*
X147799635Y-96156448D01*
X147799347Y-96141405D01*
X147798974Y-96126110D01*
X147798514Y-96110571D01*
X147797967Y-96094794D01*
X147797332Y-96078787D01*
X147796607Y-96062559D01*
X147796211Y-96054361D01*
X147795792Y-96046116D01*
X147795351Y-96037815D01*
X147794887Y-96029467D01*
X147794400Y-96021067D01*
X147793890Y-96012621D01*
X147793357Y-96004126D01*
X147792801Y-95995586D01*
X147792222Y-95987000D01*
X147791621Y-95978371D01*
X147790996Y-95969698D01*
X147790348Y-95960983D01*
X147789676Y-95952228D01*
X147788982Y-95943432D01*
X147788265Y-95934599D01*
X147787524Y-95925726D01*
X147786760Y-95916820D01*
X147785973Y-95907875D01*
X147785163Y-95898900D01*
X147784329Y-95889886D01*
X147783473Y-95880846D01*
X147782593Y-95871769D01*
X147781691Y-95862668D01*
X147780765Y-95853531D01*
X147779817Y-95844374D01*
X147778844Y-95835182D01*
X147777850Y-95825972D01*
X147776833Y-95816729D01*
X147775793Y-95807472D01*
X147774729Y-95798182D01*
X147773644Y-95788881D01*
X147772535Y-95779548D01*
X147771405Y-95770207D01*
X147770251Y-95760835D01*
X147769076Y-95751458D01*
X147767878Y-95742052D01*
X147766658Y-95732642D01*
X147765415Y-95723205D01*
X147764151Y-95713768D01*
X147762864Y-95704303D01*
X147761556Y-95694841D01*
X147760225Y-95685353D01*
X147758875Y-95675870D01*
X147757500Y-95666363D01*
X147756106Y-95656863D01*
X147754689Y-95647339D01*
X147753252Y-95637825D01*
X147751792Y-95628288D01*
X147750313Y-95618764D01*
X147748811Y-95609218D01*
X147747291Y-95599686D01*
X147745747Y-95590134D01*
X147744185Y-95580598D01*
X147742600Y-95571043D01*
X147740998Y-95561507D01*
X147739372Y-95551952D01*
X147737729Y-95542418D01*
X147736063Y-95532866D01*
X147734380Y-95523336D01*
X147732674Y-95513791D01*
X147730953Y-95504269D01*
X147729207Y-95494732D01*
X147727447Y-95485222D01*
X147725663Y-95475696D01*
X147723863Y-95466199D01*
X147722041Y-95456687D01*
X147720204Y-95447205D01*
X147718344Y-95437711D01*
X147716470Y-95428247D01*
X147714573Y-95418772D01*
X147712662Y-95409329D01*
X147710728Y-95399875D01*
X147708780Y-95390455D01*
X147706810Y-95381024D01*
X147704827Y-95371629D01*
X147702821Y-95362225D01*
X147700803Y-95352857D01*
X147698762Y-95343481D01*
X147696709Y-95334142D01*
X147694633Y-95324796D01*
X147692546Y-95315488D01*
X147690436Y-95306173D01*
X147688315Y-95296899D01*
X147686172Y-95287618D01*
X147684018Y-95278378D01*
X147681841Y-95269133D01*
X147679655Y-95259930D01*
X147677446Y-95250722D01*
X147675227Y-95241556D01*
X147672986Y-95232387D01*
X147670735Y-95223261D01*
X147668463Y-95214133D01*
X147666181Y-95205048D01*
X147663878Y-95195961D01*
X147661565Y-95186919D01*
X147659231Y-95177875D01*
X147656889Y-95168877D01*
X147654525Y-95159878D01*
X147652153Y-95150925D01*
X147649759Y-95141972D01*
X147647358Y-95133066D01*
X147644935Y-95124159D01*
X147642505Y-95115301D01*
X147640054Y-95106443D01*
X147637596Y-95097633D01*
X147635117Y-95088824D01*
X147632631Y-95080064D01*
X147630125Y-95071306D01*
X147627612Y-95062596D01*
X147625078Y-95053889D01*
X147622538Y-95045232D01*
X147619978Y-95036577D01*
X147617411Y-95027972D01*
X147614825Y-95019371D01*
X147612233Y-95010819D01*
X147609621Y-95002272D01*
X147607003Y-94993775D01*
X147604366Y-94985282D01*
X147601723Y-94976840D01*
X147599061Y-94968402D01*
X147596394Y-94960016D01*
X147593708Y-94951635D01*
X147591016Y-94943305D01*
X147588306Y-94934981D01*
X147585591Y-94926708D01*
X147582857Y-94918441D01*
X147580119Y-94910226D01*
X147577362Y-94902018D01*
X147574601Y-94893861D01*
X147571821Y-94885711D01*
X147569038Y-94877612D01*
X147566236Y-94869521D01*
X147563430Y-94861482D01*
X147560607Y-94853451D01*
X147557780Y-94845471D01*
X147554934Y-94837500D01*
X147552086Y-94829580D01*
X147549219Y-94821669D01*
X147546350Y-94813810D01*
X147543463Y-94805959D01*
X147540574Y-94798161D01*
X147537666Y-94790372D01*
X147534756Y-94782634D01*
X147531829Y-94774906D01*
X147528900Y-94767230D01*
X147525952Y-94759564D01*
X147523004Y-94751949D01*
X147520037Y-94744344D01*
X147517070Y-94736792D01*
X147514084Y-94729249D01*
X147511098Y-94721758D01*
X147508094Y-94714278D01*
X147505090Y-94706850D01*
X147502068Y-94699432D01*
X147499045Y-94692066D01*
X147496005Y-94684710D01*
X147492965Y-94677407D01*
X147489908Y-94670114D01*
X147486850Y-94662873D01*
X147483776Y-94655643D01*
X147480701Y-94648465D01*
X147477610Y-94641298D01*
X147474518Y-94634182D01*
X147471410Y-94627078D01*
X147468303Y-94620025D01*
X147465178Y-94612984D01*
X147462055Y-94605994D01*
X147458915Y-94599016D01*
X147455775Y-94592089D01*
X147452619Y-94585174D01*
X147449464Y-94578309D01*
X147446293Y-94571458D01*
X147443123Y-94564656D01*
X147439937Y-94557867D01*
X147436752Y-94551128D01*
X147433551Y-94544402D01*
X147430351Y-94537726D01*
X147427136Y-94531063D01*
X147423921Y-94524449D01*
X147420692Y-94517849D01*
X147417463Y-94511298D01*
X147414220Y-94504760D01*
X147410978Y-94498272D01*
X147407720Y-94491797D01*
X147404465Y-94485370D01*
X147401194Y-94478958D01*
X147397925Y-94472594D01*
X147394641Y-94466244D01*
X147391359Y-94459942D01*
X147388062Y-94453655D01*
X147384767Y-94447415D01*
X147381457Y-94441189D01*
X147378150Y-94435011D01*
X147374827Y-94428848D01*
X147371507Y-94422731D01*
X147368173Y-94416629D01*
X147364841Y-94410574D01*
X147361494Y-94404534D01*
X147358150Y-94398540D01*
X147354792Y-94392562D01*
X147351436Y-94386629D01*
X147348066Y-94380712D01*
X147344699Y-94374840D01*
X147341318Y-94368984D01*
X147337939Y-94363173D01*
X147334547Y-94357377D01*
X147331157Y-94351627D01*
X147327754Y-94345892D01*
X147324353Y-94340202D01*
X147320939Y-94334527D01*
X147317527Y-94328897D01*
X147314102Y-94323283D01*
X147310681Y-94317712D01*
X147307245Y-94312158D01*
X147303813Y-94306647D01*
X147300368Y-94301153D01*
X147296925Y-94295701D01*
X147293470Y-94290266D01*
X147290017Y-94284874D01*
X147286552Y-94279498D01*
X147283090Y-94274165D01*
X147279614Y-94268847D01*
X147276143Y-94263573D01*
X147272658Y-94258314D01*
X147269177Y-94253098D01*
X147265682Y-94247898D01*
X147262192Y-94242739D01*
X147258688Y-94237598D01*
X147255188Y-94232497D01*
X147251676Y-94227413D01*
X147248167Y-94222370D01*
X147244645Y-94217343D01*
X147241128Y-94212357D01*
X147237597Y-94207388D01*
X147234071Y-94202459D01*
X147230532Y-94197547D01*
X147226996Y-94192675D01*
X147223449Y-94187820D01*
X147219905Y-94183004D01*
X147216349Y-94178205D01*
X147212797Y-94173445D01*
X147209233Y-94168702D01*
X147205672Y-94163999D01*
X147202100Y-94159312D01*
X147198531Y-94154663D01*
X147194951Y-94150032D01*
X147191374Y-94145439D01*
X147187786Y-94140863D01*
X147184201Y-94136324D01*
X147180605Y-94131803D01*
X147177012Y-94127319D01*
X147173408Y-94122853D01*
X147169808Y-94118424D01*
X147166196Y-94114012D01*
X147162589Y-94109636D01*
X147158969Y-94105278D01*
X147155354Y-94100957D01*
X147151727Y-94096652D01*
X147148105Y-94092384D01*
X147144470Y-94088133D01*
X147140840Y-94083918D01*
X147137199Y-94079721D01*
X147133561Y-94075558D01*
X147129913Y-94071414D01*
X147126268Y-94067304D01*
X147122612Y-94063212D01*
X147118961Y-94059154D01*
X147115297Y-94055114D01*
X147111639Y-94051109D01*
X147107969Y-94047120D01*
X147104303Y-94043167D01*
X147100626Y-94039230D01*
X147096953Y-94035327D01*
X147093269Y-94031442D01*
X147089589Y-94027591D01*
X147085899Y-94023757D01*
X147082212Y-94019956D01*
X147078515Y-94016172D01*
X147074821Y-94012422D01*
X147071117Y-94008689D01*
X147067417Y-94004989D01*
X147063706Y-94001306D01*
X147059999Y-93997656D01*
X147056281Y-93994023D01*
X147052567Y-93990422D01*
X147048843Y-93986838D01*
X147045123Y-93983287D01*
X147041392Y-93979753D01*
X147037665Y-93976250D01*
X147033927Y-93972765D01*
X147030194Y-93969311D01*
X147026450Y-93965874D01*
X147022710Y-93962469D01*
X147018959Y-93959081D01*
X147015212Y-93955723D01*
X147011455Y-93952383D01*
X147007702Y-93949073D01*
X147003938Y-93945781D01*
X147000178Y-93942519D01*
X146996408Y-93939275D01*
X146992641Y-93936060D01*
X146988865Y-93932862D01*
X146985091Y-93929694D01*
X146981308Y-93926544D01*
X146977529Y-93923423D01*
X146973739Y-93920319D01*
X146969953Y-93917245D01*
X146966156Y-93914188D01*
X146962364Y-93911159D01*
X146958561Y-93908148D01*
X146954761Y-93905165D01*
X146950952Y-93902201D01*
X146947146Y-93899264D01*
X146943330Y-93896344D01*
X146939517Y-93893453D01*
X146935695Y-93890579D01*
X146931875Y-93887732D01*
X146928046Y-93884904D01*
X146924220Y-93882102D01*
X146920384Y-93879318D01*
X146916552Y-93876562D01*
X146912709Y-93873823D01*
X146908870Y-93871110D01*
X146905020Y-93868415D01*
X146901174Y-93865747D01*
X146897318Y-93863097D01*
X146893465Y-93860472D01*
X146889602Y-93857866D01*
X146885742Y-93855285D01*
X146881872Y-93852723D01*
X146878005Y-93850185D01*
X146874129Y-93847666D01*
X146870255Y-93845172D01*
X146866371Y-93842696D01*
X146862490Y-93840246D01*
X146858600Y-93837813D01*
X146854712Y-93835405D01*
X146850814Y-93833015D01*
X146846919Y-93830649D01*
X146843014Y-93828302D01*
X146839111Y-93825979D01*
X146835199Y-93823674D01*
X146831289Y-93821393D01*
X146827370Y-93819130D01*
X146823453Y-93816892D01*
X146819527Y-93814671D01*
X146815602Y-93812474D01*
X146811668Y-93810295D01*
X146807736Y-93808140D01*
X146803794Y-93806003D01*
X146799854Y-93803889D01*
X146795905Y-93801793D01*
X146791958Y-93799721D01*
X146788001Y-93797667D01*
X146784046Y-93795635D01*
X146780081Y-93793622D01*
X146776118Y-93791632D01*
X146772146Y-93789659D01*
X146768174Y-93787710D01*
X146764194Y-93785778D01*
X146760215Y-93783869D01*
X146756227Y-93781978D01*
X146752239Y-93780110D01*
X146748243Y-93778259D01*
X146744247Y-93776431D01*
X146740242Y-93774621D01*
X146736238Y-93772833D01*
X146732225Y-93771063D01*
X146728213Y-93769316D01*
X146724191Y-93767586D01*
X146720170Y-93765878D01*
X146716140Y-93764188D01*
X146712110Y-93762520D01*
X146708071Y-93760870D01*
X146704033Y-93759241D01*
X146699985Y-93757631D01*
X146695937Y-93756042D01*
X146691881Y-93754471D01*
X146687824Y-93752922D01*
X146683759Y-93751390D01*
X146679693Y-93749880D01*
X146675618Y-93748388D01*
X146671543Y-93746917D01*
X146667459Y-93745465D01*
X146663374Y-93744033D01*
X146659281Y-93742620D01*
X146655187Y-93741227D01*
X146651084Y-93739853D01*
X146646980Y-93738499D01*
X146642868Y-93737164D01*
X146638754Y-93735849D01*
X146634631Y-93734553D01*
X146630508Y-93733277D01*
X146626375Y-93732019D01*
X146622241Y-93730782D01*
X146618099Y-93729563D01*
X146613955Y-93728365D01*
X146609802Y-93727185D01*
X146605648Y-93726026D01*
X146601485Y-93724884D01*
X146597320Y-93723763D01*
X146593146Y-93722661D01*
X146588970Y-93721578D01*
X146584786Y-93720514D01*
X146580599Y-93719471D01*
X146576404Y-93718445D01*
X146572207Y-93717440D01*
X146568001Y-93716453D01*
X146563792Y-93715486D01*
X146559575Y-93714538D01*
X146555355Y-93713610D01*
X146551126Y-93712700D01*
X146546895Y-93711810D01*
X146542655Y-93710939D01*
X146538412Y-93710088D01*
X146534160Y-93709255D01*
X146529905Y-93708442D01*
X146525642Y-93707648D01*
X146521375Y-93706874D01*
X146517100Y-93706119D01*
X146512821Y-93705383D01*
X146508534Y-93704666D01*
X146504242Y-93703968D01*
X146499943Y-93703290D01*
X146495639Y-93702631D01*
X146491327Y-93701992D01*
X146487011Y-93701372D01*
X146482686Y-93700770D01*
X146478357Y-93700189D01*
X146474020Y-93699627D01*
X146469678Y-93699084D01*
X146465328Y-93698560D01*
X146460973Y-93698056D01*
X146456609Y-93697571D01*
X146452241Y-93697106D01*
X146447864Y-93696660D01*
X146443482Y-93696233D01*
X146439092Y-93695826D01*
X146434697Y-93695439D01*
X146430293Y-93695071D01*
X146425884Y-93694722D01*
X146421466Y-93694393D01*
X146417043Y-93694084D01*
X146412611Y-93693794D01*
X146408174Y-93693524D01*
X146403728Y-93693273D01*
X146399277Y-93693042D01*
X146394816Y-93692831D01*
X146390350Y-93692639D01*
X146385876Y-93692467D01*
X146381395Y-93692315D01*
X146376905Y-93692183D01*
X146372409Y-93692070D01*
X146367905Y-93691978D01*
X146363394Y-93691905D01*
X146358875Y-93691852D01*
X146354349Y-93691819D01*
X146349814Y-93691806D01*
X146345273Y-93691813D01*
X146340723Y-93691840D01*
X146336166Y-93691887D01*
X146331600Y-93691955D01*
X146327027Y-93692042D01*
X146322446Y-93692150D01*
X146317857Y-93692277D01*
X146313259Y-93692425D01*
X146308654Y-93692594D01*
X146304041Y-93692782D01*
X146299419Y-93692991D01*
X146294789Y-93693221D01*
X146290151Y-93693471D01*
X146285505Y-93693741D01*
X146280850Y-93694032D01*
X146276187Y-93694343D01*
X146271515Y-93694676D01*
X146266835Y-93695028D01*
X146262146Y-93695402D01*
X146257449Y-93695796D01*
X146252743Y-93696211D01*
X146248028Y-93696647D01*
X146243304Y-93697104D01*
X146238572Y-93697582D01*
X146233831Y-93698081D01*
X146229081Y-93698601D01*
X146224322Y-93699142D01*
X146219555Y-93699704D01*
X146214778Y-93700288D01*
X146209992Y-93700893D01*
X146205196Y-93701519D01*
X146200392Y-93702166D01*
X146195579Y-93702835D01*
X146190756Y-93703525D01*
X146185924Y-93704237D01*
X146181083Y-93704971D01*
X146176232Y-93705726D01*
X146171372Y-93706503D01*
X146166501Y-93707302D01*
X146161623Y-93708123D01*
X146156733Y-93708965D01*
X146151835Y-93709830D01*
X146146926Y-93710716D01*
X146142009Y-93711625D01*
X146137081Y-93712556D01*
X146132144Y-93713509D01*
X146127195Y-93714484D01*
X146122239Y-93715482D01*
X146117271Y-93716502D01*
X146112294Y-93717545D01*
X146107306Y-93718610D01*
X146102309Y-93719698D01*
X146097300Y-93720808D01*
X146092283Y-93721941D01*
X146087254Y-93723098D01*
X146082216Y-93724277D01*
X146077167Y-93725479D01*
X146072108Y-93726704D01*
X146067038Y-93727952D01*
X146061958Y-93729223D01*
X146056867Y-93730518D01*
X146051766Y-93731836D01*
X146041532Y-93734542D01*
X146031254Y-93737343D01*
X146020933Y-93740239D01*
X146010569Y-93743230D01*
X146000161Y-93746317D01*
X145989708Y-93749501D01*
X145979210Y-93752783D01*
X145968667Y-93756162D01*
X145958079Y-93759641D01*
X145947445Y-93763219D01*
X145936765Y-93766897D01*
X145926038Y-93770676D01*
X145915264Y-93774557D01*
X145904442Y-93778540D01*
X145893573Y-93782625D01*
X145882656Y-93786815D01*
X145871691Y-93791109D01*
X145860676Y-93795509D01*
X145849613Y-93800014D01*
X145838500Y-93804626D01*
X145827337Y-93809346D01*
X145816124Y-93814174D01*
X145804860Y-93819111D01*
X145793545Y-93824159D01*
X145782179Y-93829316D01*
X145770761Y-93834586D01*
X145759292Y-93839967D01*
X145747770Y-93845462D01*
X145736195Y-93851071D01*
X145724567Y-93856795D01*
X145712886Y-93862634D01*
X145701151Y-93868590D01*
X145689362Y-93874663D01*
X145677518Y-93880855D01*
X145665619Y-93887166D01*
X145653666Y-93893597D01*
X145641657Y-93900148D01*
X145629592Y-93906822D01*
X145617471Y-93913618D01*
X145605293Y-93920538D01*
X145593059Y-93927583D01*
X145580767Y-93934753D01*
X145568418Y-93942049D01*
X145556011Y-93949473D01*
X145543545Y-93957025D01*
X145531022Y-93964707D01*
X145518439Y-93972518D01*
X145505797Y-93980461D01*
X145493095Y-93988536D01*
X145480334Y-93996744D01*
X145467513Y-94005086D01*
X145454630Y-94013564D01*
X145441688Y-94022177D01*
X145428683Y-94030927D01*
X145415618Y-94039816D01*
X145402490Y-94048843D01*
X145389301Y-94058011D01*
X145376049Y-94067320D01*
X145362734Y-94076770D01*
X145349356Y-94086365D01*
X145335914Y-94096103D01*
X145322409Y-94105986D01*
X145308840Y-94116016D01*
X145295206Y-94126193D01*
X145281508Y-94136519D01*
X145267744Y-94146994D01*
X145253915Y-94157619D01*
X145240021Y-94168397D01*
X145226060Y-94179327D01*
X145212034Y-94190410D01*
X145200000Y-94200000D01*
M02*
